Hamlet-Cicero12.ufo
<glyph name="ampersand" format="1">
  <advance width="700"/>
  <unicode hex="0026"/>
  <outline>
    <contour>
      <point x="226" y="253" type="curve"/>
      <point x="241" y="246" type="line"/>
      <point x="275" y="288"/>
      <point x="323" y="346"/>
      <point x="323" y="396" type="curve"/>
      <point x="323" y="448"/>
      <point x="273" y="502"/>
      <point x="207" y="502" type="curve"/>
      <point x="132" y="502"/>
      <point x="52" y="459"/>
      <point x="52" y="372" type="curve"/>
      <point x="52" y="319"/>
      <point x="110" y="264"/>
      <point x="186" y="208" type="curve"/>
      <point x="340" y="93"/>
      <point x="472" y="-10"/>
      <point x="529" y="-10" type="curve"/>
      <point x="592" y="-10"/>
      <point x="658" y="68"/>
      <point x="678" y="130" type="curve"/>
      <point x="656" y="140" type="line"/>
      <point x="637" y="107"/>
      <point x="607" y="76"/>
      <point x="582" y="76" type="curve"/>
      <point x="503" y="76"/>
      <point x="332" y="202"/>
      <point x="230" y="274" type="curve"/>
      <point x="165" y="319"/>
      <point x="130" y="349"/>
      <point x="130" y="394" type="curve"/>
      <point x="130" y="417"/>
      <point x="139" y="440"/>
      <point x="165" y="440" type="curve"/>
      <point x="205" y="440"/>
      <point x="234" y="399"/>
      <point x="243" y="363" type="curve"/>
      <point x="248" y="342"/>
      <point x="244" y="320"/>
    </contour>
    <contour>
      <point x="136" y="268" type="curve"/>
      <point x="111" y="283" type="line"/>
      <point x="68" y="243"/>
      <point x="20" y="185"/>
      <point x="20" y="133" type="curve"/>
      <point x="20" y="54"/>
      <point x="71" y="-10"/>
      <point x="182" y="-10" type="curve"/>
      <point x="334" y="-10"/>
      <point x="662" y="352"/>
      <point x="649" y="499" type="curve"/>
      <point x="491" y="470" type="line"/>
      <point x="497" y="444" type="line"/>
      <point x="523" y="438"/>
      <point x="538" y="418"/>
      <point x="538" y="390" type="curve"/>
      <point x="538" y="284"/>
      <point x="310" y="65"/>
      <point x="242" y="65" type="curve"/>
      <point x="182" y="65"/>
      <point x="98" y="92"/>
      <point x="98" y="182" type="curve"/>
      <point x="98" y="219"/>
      <point x="120" y="253"/>
    </contour>
  </outline>
</glyph>
<glyph name="quotesingle" format="1">
  <advance width="190"/>
  <unicode hex="0027"/>
  <outline>
    <contour>
      <point x="20" y="490" type="line"/>
      <point x="134" y="688" type="line"/>
      <point x="180" y="642" type="line"/>
      <point x="37" y="480" type="line"/>
    </contour>
    <contour>
      <point x="111" y="573" type="line"/>
      <point x="37" y="642" type="line"/>
      <point x="109" y="713" type="line"/>
      <point x="178" y="644" type="line"/>
    </contour>
  </outline>
</glyph>
<glyph name="parenleft" format="1">
  <advance width="275"/>
  <unicode hex="0028"/>
  <outline>
    <contour>
      <point x="172" y="675" type="curve"/>
      <point x="209" y="653" type="line"/>
      <point x="147" y="531"/>
      <point x="125" y="426"/>
      <point x="125" y="266" type="curve"/>
      <point x="125" y="106"/>
      <point x="178" y="-52"/>
      <point x="230" y="-143" type="curve"/>
      <point x="193" y="-167" type="line"/>
      <point x="119" y="-74"/>
      <point x="40" y="86"/>
      <point x="40" y="269" type="curve"/>
      <point x="40" y="452"/>
      <point x="93" y="547"/>
    </contour>
  </outline>
</glyph>
<glyph name="parenright" format="1">
  <advance width="275"/>
  <unicode hex="0029"/>
  <outline>
    <contour>
      <point x="98" y="-167" type="curve"/>
      <point x="61" y="-143" type="line"/>
      <point x="123" y="-21"/>
      <point x="145" y="82"/>
      <point x="145" y="242" type="curve"/>
      <point x="145" y="402"/>
      <point x="93" y="560"/>
      <point x="41" y="651" type="curve"/>
      <point x="77" y="675" type="line"/>
      <point x="151" y="582"/>
      <point x="230" y="422"/>
      <point x="230" y="239" type="curve"/>
      <point x="230" y="56"/>
      <point x="175" y="-37"/>
    </contour>
  </outline>
</glyph>
<glyph name="comma" format="1">
  <advance width="217"/>
  <unicode hex="002C"/>
  <outline>
    <contour>
      <point x="197" y="29" type="line"/>
      <point x="197" y="32" type="line"/>
      <point x="114" y="116" type="line"/>
      <point x="112" y="116" type="line"/>
      <point x="43" y="46" type="line"/>
      <point x="43" y="44" type="line"/>
      <point x="98" y="-10" type="line"/>
      <point x="20" y="-115" type="line"/>
      <point x="35" y="-133" type="line"/>
    </contour>
  </outline>
</glyph>
<glyph name="hyphen" format="1">
  <advance width="360"/>
  <unicode hex="002D"/>
  <outline>
    <contour>
      <point x="254" y="187" type="line"/>
      <point x="55" y="187" type="line"/>
      <point x="55" y="192" type="line"/>
      <point x="96" y="258" type="line"/>
      <point x="297" y="258" type="line"/>
      <point x="297" y="252" type="line"/>
    </contour>
  </outline>
</glyph>
<glyph name="period" format="1">
  <advance width="170"/>
  <unicode hex="002E"/>
  <outline>
    <contour>
      <point x="26" y="51" type="curve"/>
      <point x="26" y="52" type="line"/>
      <point x="47" y="72"/>
      <point x="68" y="93"/>
      <point x="87" y="113" type="curve"/>
      <point x="88" y="113" type="line"/>
      <point x="109" y="95"/>
      <point x="130" y="74"/>
      <point x="149" y="52" type="curve"/>
      <point x="149" y="51" type="line"/>
      <point x="132" y="31"/>
      <point x="111" y="10"/>
      <point x="88" y="-10" type="curve"/>
      <point x="87" y="-10" type="line"/>
      <point x="66" y="13"/>
      <point x="45" y="34"/>
    </contour>
  </outline>
</glyph>
<glyph name="question" format="1">
  <advance width="299"/>
  <unicode hex="003F"/>
  <outline>
    <contour>
      <point x="123" y="710" type="curve"/>
      <point x="0" y="558" type="line"/>
      <point x="17" y="542" type="line"/>
      <point x="44" y="570"/>
      <point x="82" y="591"/>
      <point x="112" y="591" type="curve"/>
      <point x="153" y="591"/>
      <point x="192" y="574"/>
      <point x="192" y="519" type="curve"/>
      <point x="192" y="445"/>
      <point x="123" y="238"/>
      <point x="124" y="202" type="curve"/>
      <point x="142" y="174"/>
      <point x="182" y="146"/>
      <point x="214" y="134" type="curve"/>
      <point x="279" y="220" type="line"/>
      <point x="279" y="227" type="line"/>
      <point x="230" y="227"/>
      <point x="183" y="250"/>
      <point x="183" y="281" type="curve"/>
      <point x="183" y="348"/>
      <point x="264" y="477"/>
      <point x="264" y="563" type="curve"/>
      <point x="264" y="658"/>
      <point x="183" y="711"/>
    </contour>
    <component base="period" xOffset="91" yOffset="-8"/>
  </outline>
</glyph>
<glyph name="A" format="1">
  <advance width="676"/>
  <unicode hex="0041"/>
  <outline>
    <contour>
      <point x="489" y="309" type="line"/>
      <point x="204" y="309" type="line"/>
      <point x="174" y="239" type="line"/>
      <point x="269" y="239"/>
      <point x="394" y="239"/>
      <point x="489" y="239" type="curve"/>
    </contour>
    <contour>
      <point x="488" y="20" type="curve"/>
      <point x="493" y="0" type="line"/>
      <point x="661" y="0" type="line"/>
      <point x="666" y="10" type="line"/>
      <point x="564" y="225"/>
      <point x="394" y="625"/>
      <point x="368" y="710" type="curve"/>
      <point x="345" y="710" type="line"/>
      <point x="10" y="10" type="line"/>
      <point x="15" y="0" type="line"/>
      <point x="175" y="0" type="line"/>
      <point x="175" y="20" type="line"/>
      <point x="145" y="40"/>
      <point x="131" y="66"/>
      <point x="146" y="102" type="curve"/>
      <point x="355" y="623" type="line"/>
      <point x="316" y="583" type="line"/>
      <point x="398" y="401"/>
      <point x="460" y="257"/>
      <point x="523" y="102" type="curve"/>
      <point x="542" y="56"/>
      <point x="524" y="40"/>
    </contour>
  </outline>
</glyph>
<glyph name="B" format="1">
  <advance width="672"/>
  <unicode hex="0042"/>
  <outline>
    <contour>
      <point x="57" y="653" type="curve"/>
      <point x="57" y="638" type="line"/>
      <point x="79" y="624"/>
      <point x="107" y="599"/>
      <point x="108" y="577" type="curve"/>
      <point x="117" y="382"/>
      <point x="116" y="241"/>
      <point x="110" y="151" type="curve"/>
      <point x="104" y="60"/>
      <point x="93" y="58"/>
      <point x="75" y="36" type="curve"/>
      <point x="82" y="16" type="line"/>
      <point x="178" y="6"/>
      <point x="279" y="-10"/>
      <point x="354" y="-10" type="curve"/>
      <point x="484" y="-10"/>
      <point x="637" y="66"/>
      <point x="637" y="206" type="curve"/>
      <point x="637" y="309"/>
      <point x="557" y="377"/>
      <point x="453" y="408" type="curve"/>
      <point x="515" y="433"/>
      <point x="581" y="484"/>
      <point x="581" y="559" type="curve"/>
      <point x="581" y="659"/>
      <point x="467" y="710"/>
      <point x="367" y="710" type="curve"/>
      <point x="291" y="710"/>
      <point x="155" y="675"/>
    </contour>
    <contour>
      <point x="218" y="150" type="curve"/>
      <point x="218" y="347" type="line"/>
      <point x="218" y="367"/>
      <point x="262" y="378"/>
      <point x="352" y="378" type="curve"/>
      <point x="442" y="378"/>
      <point x="517" y="316"/>
      <point x="517" y="216" type="curve"/>
      <point x="517" y="106"/>
      <point x="462" y="50"/>
      <point x="352" y="50" type="curve"/>
      <point x="277" y="50"/>
      <point x="218" y="75"/>
    </contour>
    <contour>
      <point x="218" y="432" type="curve"/>
      <point x="218" y="615" type="line"/>
      <point x="218" y="640"/>
      <point x="281" y="660"/>
      <point x="338" y="660" type="curve"/>
      <point x="408" y="660"/>
      <point x="460" y="620"/>
      <point x="460" y="550" type="curve"/>
      <point x="460" y="452"/>
      <point x="385" y="416"/>
      <point x="315" y="416" type="curve"/>
      <point x="255" y="416"/>
      <point x="218" y="422"/>
    </contour>
  </outline>
</glyph>
<glyph name="C" format="1">
  <advance width="583"/>
  <unicode hex="0043"/>
  <outline>
    <contour>
      <point x="567" y="665" type="curve"/>
      <point x="569" y="654" type="line"/>
      <point x="480" y="563" type="line"/>
      <point x="424" y="594"/>
      <point x="305" y="624"/>
      <point x="261" y="624" type="curve"/>
      <point x="193" y="624"/>
      <point x="141" y="552"/>
      <point x="141" y="395" type="curve"/>
      <point x="141" y="175"/>
      <point x="312" y="90"/>
      <point x="392" y="90" type="curve"/>
      <point x="433" y="90"/>
      <point x="488" y="120"/>
      <point x="550" y="167" type="curve"/>
      <point x="573" y="139" type="line"/>
      <point x="500" y="70"/>
      <point x="395" y="-10"/>
      <point x="359" y="-10" type="curve"/>
      <point x="159" y="-10"/>
      <point x="51" y="174"/>
      <point x="51" y="354" type="curve"/>
      <point x="51" y="537"/>
      <point x="179" y="709"/>
      <point x="368" y="709" type="curve"/>
      <point x="415" y="709"/>
      <point x="522" y="687"/>
    </contour>
  </outline>
</glyph>
<glyph name="D" format="1">
  <advance width="787"/>
  <unicode hex="0044"/>
  <outline>
    <contour>
      <point x="376" y="-10" type="curve"/>
      <point x="262" y="-10"/>
      <point x="204" y="20"/>
      <point x="157" y="20" type="curve"/>
      <point x="134" y="20"/>
      <point x="107" y="20"/>
      <point x="92" y="10" type="curve"/>
      <point x="80" y="30" type="line"/>
      <point x="95" y="46"/>
      <point x="108" y="63"/>
      <point x="111" y="105" type="curve"/>
      <point x="122" y="231"/>
      <point x="116" y="386"/>
      <point x="109" y="532" type="curve"/>
      <point x="107" y="576"/>
      <point x="74" y="638"/>
      <point x="40" y="682" type="curve"/>
      <point x="50" y="702" type="line"/>
      <point x="90" y="689"/>
      <point x="122" y="681"/>
      <point x="164" y="681" type="curve"/>
      <point x="215" y="681"/>
      <point x="281" y="710"/>
      <point x="365" y="710" type="curve"/>
      <point x="602" y="710"/>
      <point x="737" y="529"/>
      <point x="737" y="336" type="curve"/>
      <point x="737" y="144"/>
      <point x="586" y="-10"/>
    </contour>
    <contour>
      <point x="356" y="50" type="curve"/>
      <point x="526" y="50"/>
      <point x="617" y="186"/>
      <point x="617" y="356" type="curve"/>
      <point x="617" y="518"/>
      <point x="510" y="655"/>
      <point x="377" y="655" type="curve"/>
      <point x="302" y="655"/>
      <point x="223" y="632"/>
      <point x="223" y="608" type="curve"/>
      <point x="223" y="166" type="line" smooth="yes"/>
      <point x="223" y="87"/>
      <point x="286" y="50"/>
    </contour>
  </outline>
</glyph>
<glyph name="E" format="1">
  <advance width="480"/>
  <unicode hex="0045"/>
  <outline>
    <contour>
      <point x="440" y="700" type="line"/>
      <point x="190" y="700" type="line"/>
      <point x="190" y="640" type="line"/>
      <point x="380" y="640" type="line" smooth="yes"/>
      <point x="410" y="640"/>
      <point x="418" y="620"/>
      <point x="430" y="580" type="curve"/>
      <point x="440" y="580" type="line"/>
    </contour>
    <contour>
      <point x="194" y="404" type="line"/>
      <point x="194" y="344" type="line"/>
      <point x="353" y="344" type="line" smooth="yes"/>
      <point x="393" y="344"/>
      <point x="406" y="321"/>
      <point x="419" y="300" type="curve"/>
      <point x="437" y="300" type="line"/>
      <point x="437" y="457" type="line"/>
      <point x="419" y="457" type="line"/>
      <point x="411" y="439"/>
      <point x="395" y="404"/>
      <point x="375" y="404" type="curve"/>
    </contour>
    <contour>
      <point x="342" y="65" type="curve"/>
      <point x="200" y="65" type="line"/>
      <point x="200" y="0" type="line"/>
      <point x="380" y="0" type="line" smooth="yes"/>
      <point x="410" y="0"/>
      <point x="417" y="-16"/>
      <point x="430" y="-60" type="curve"/>
      <point x="440" y="-60" type="line"/>
      <point x="440" y="141" type="line"/>
      <point x="430" y="141" type="line"/>
      <point x="406" y="97"/>
      <point x="382" y="65"/>
    </contour>
    <contour>
      <point x="90" y="560" type="curve"/>
      <point x="95" y="406"/>
      <point x="95" y="253"/>
      <point x="90" y="110" type="curve"/>
      <point x="88" y="60"/>
      <point x="65" y="43"/>
      <point x="40" y="20" type="curve"/>
      <point x="40" y="0" type="line"/>
      <point x="90" y="0" type="line"/>
      <point x="200" y="0" type="line"/>
      <point x="265" y="0" type="line"/>
      <point x="200" y="20" type="line"/>
      <point x="200" y="110" type="line"/>
      <point x="195" y="307"/>
      <point x="195" y="503"/>
      <point x="200" y="700" type="curve"/>
      <point x="55" y="700" type="line"/>
      <point x="55" y="690" type="line"/>
      <point x="70" y="660"/>
      <point x="88" y="620"/>
    </contour>
  </outline>
</glyph>
<glyph name="F" format="1">
  <advance width="458"/>
  <unicode hex="0046"/>
  <outline>
    <contour>
      <point x="428" y="700" type="line"/>
      <point x="198" y="700" type="line"/>
      <point x="198" y="636" type="line"/>
      <point x="376" y="636" type="line" smooth="yes"/>
      <point x="395" y="636"/>
      <point x="409" y="603"/>
      <point x="418" y="567" type="curve"/>
      <point x="428" y="567" type="line"/>
    </contour>
    <contour>
      <point x="90" y="560" type="curve"/>
      <point x="95" y="406"/>
      <point x="95" y="253"/>
      <point x="90" y="110" type="curve"/>
      <point x="88" y="60"/>
      <point x="65" y="43"/>
      <point x="40" y="20" type="curve"/>
      <point x="40" y="0" type="line"/>
      <point x="90" y="0" type="line"/>
      <point x="200" y="0" type="line"/>
      <point x="265" y="0" type="line"/>
      <point x="265" y="20" type="line"/>
      <point x="222" y="52"/>
      <point x="201" y="80"/>
      <point x="200" y="110" type="curve"/>
      <point x="195" y="307"/>
      <point x="195" y="503"/>
      <point x="200" y="700" type="curve"/>
      <point x="55" y="700" type="line"/>
      <point x="55" y="690" type="line"/>
      <point x="70" y="660"/>
      <point x="88" y="620"/>
    </contour>
    <contour>
      <point x="174" y="404" type="line"/>
      <point x="174" y="344" type="line"/>
      <point x="333" y="344" type="line" smooth="yes"/>
      <point x="373" y="344"/>
      <point x="386" y="321"/>
      <point x="399" y="300" type="curve"/>
      <point x="417" y="300" type="line"/>
      <point x="417" y="457" type="line"/>
      <point x="399" y="457" type="line"/>
      <point x="391" y="439"/>
      <point x="375" y="404"/>
      <point x="355" y="404" type="curve"/>
    </contour>
  </outline>
</glyph>
<glyph name="G" format="1">
  <advance width="740"/>
  <unicode hex="0047"/>
  <outline>
    <contour>
      <point x="467" y="710" type="curve"/>
      <point x="564" y="710"/>
      <point x="638" y="682"/>
      <point x="700" y="645" type="curve"/>
      <point x="635" y="544" type="line"/>
      <point x="629" y="544" type="line"/>
      <point x="561" y="601"/>
      <point x="451" y="624"/>
      <point x="384" y="624" type="curve"/>
      <point x="234" y="624"/>
      <point x="171" y="523"/>
      <point x="171" y="373" type="curve"/>
      <point x="171" y="202"/>
      <point x="280" y="50"/>
      <point x="450" y="50" type="curve"/>
      <point x="490" y="50"/>
      <point x="564" y="57"/>
      <point x="588" y="72" type="curve"/>
      <point x="588" y="316" type="line"/>
      <point x="524" y="316"/>
      <point x="408" y="323"/>
      <point x="366" y="292" type="curve"/>
      <point x="351" y="303" type="line"/>
      <point x="429" y="401" type="line"/>
      <point x="493" y="393"/>
      <point x="621" y="392"/>
      <point x="676" y="400" type="curve"/>
      <point x="678" y="397" type="line"/>
      <point x="674" y="287"/>
      <point x="675" y="167"/>
      <point x="678" y="57" type="curve"/>
      <point x="632" y="27"/>
      <point x="510" y="-10"/>
      <point x="420" y="-10" type="curve"/>
      <point x="220" y="-10"/>
      <point x="51" y="133"/>
      <point x="51" y="333" type="curve"/>
      <point x="51" y="553"/>
      <point x="247" y="710"/>
    </contour>
  </outline>
</glyph>
<glyph name="H" format="1">
  <advance width="729"/>
  <unicode hex="0048"/>
  <outline>
    <contour>
      <point x="190" y="303" type="line"/>
      <point x="536" y="303" type="line"/>
      <point x="536" y="373" type="line"/>
      <point x="190" y="373" type="line"/>
    </contour>
    <contour>
      <point x="639" y="82" type="curve"/>
      <point x="630" y="258"/>
      <point x="632" y="331"/>
      <point x="639" y="497" type="curve"/>
      <point x="641" y="547"/>
      <point x="664" y="569"/>
      <point x="689" y="592" type="curve"/>
      <point x="689" y="612" type="line"/>
      <point x="464" y="612" type="line"/>
      <point x="464" y="592" type="line"/>
      <point x="507" y="560"/>
      <point x="528" y="537"/>
      <point x="529" y="497" type="curve"/>
      <point x="533" y="338"/>
      <point x="529" y="251"/>
      <point x="529" y="82" type="curve"/>
      <point x="529" y="62"/>
      <point x="488" y="37"/>
      <point x="460" y="20" type="curve"/>
      <point x="460" y="0" type="line"/>
      <point x="684" y="0" type="line"/>
      <point x="684" y="20" type="line"/>
      <point x="665" y="32"/>
      <point x="640" y="62"/>
    </contour>
    <component base="I"/>
  </outline>
</glyph>
<glyph name="I" format="1">
  <advance width="309"/>
  <unicode hex="0049"/>
  <outline>
    <contour>
      <point x="90" y="618" type="curve"/>
      <point x="94" y="442"/>
      <point x="94" y="281"/>
      <point x="90" y="115" type="curve"/>
      <point x="89" y="65"/>
      <point x="65" y="43"/>
      <point x="40" y="20" type="curve"/>
      <point x="40" y="0" type="line"/>
      <point x="265" y="0" type="line"/>
      <point x="265" y="20" type="line"/>
      <point x="222" y="52"/>
      <point x="201" y="75"/>
      <point x="200" y="115" type="curve"/>
      <point x="196" y="274"/>
      <point x="196" y="449"/>
      <point x="200" y="618" type="curve"/>
      <point x="200" y="638"/>
      <point x="241" y="663"/>
      <point x="269" y="680" type="curve"/>
      <point x="269" y="700" type="line"/>
      <point x="45" y="700" type="line"/>
      <point x="45" y="680" type="line"/>
      <point x="64" y="668"/>
      <point x="90" y="638"/>
    </contour>
  </outline>
</glyph>
<glyph name="J" format="1">
  <advance width="471"/>
  <unicode hex="004A"/>
  <outline>
    <contour>
      <point x="55" y="588" type="curve"/>
      <point x="40" y="599" type="line"/>
      <point x="69" y="666"/>
      <point x="96" y="707"/>
      <point x="133" y="707" type="curve"/>
      <point x="170" y="707"/>
      <point x="242" y="700"/>
      <point x="305" y="700" type="curve"/>
      <point x="345" y="700"/>
      <point x="383" y="701"/>
      <point x="423" y="712" type="curve"/>
      <point x="431" y="700" type="line"/>
      <point x="411" y="666"/>
      <point x="393" y="614"/>
      <point x="393" y="441" type="curve"/>
      <point x="393" y="199" type="line" smooth="yes"/>
      <point x="393" y="-45"/>
      <point x="335" y="-133"/>
      <point x="191" y="-190" type="curve"/>
      <point x="174" y="-156" type="line"/>
      <point x="249" y="-108"/>
      <point x="283" y="-35"/>
      <point x="283" y="65" type="curve"/>
      <point x="283" y="607" type="line"/>
      <point x="106" y="614"/>
      <point x="73" y="607"/>
    </contour>
  </outline>
</glyph>
<glyph name="K" format="1">
  <advance width="671"/>
  <unicode hex="004B"/>
  <outline>
    <contour>
      <point x="191" y="404" type="line"/>
      <point x="191" y="344" type="line"/>
      <point x="200" y="344" type="line" smooth="yes"/>
      <point x="260" y="344"/>
      <point x="463" y="143"/>
      <point x="463" y="82" type="curve"/>
      <point x="463" y="60"/>
      <point x="448" y="42"/>
      <point x="426" y="20" type="curve"/>
      <point x="426" y="0" type="line"/>
      <point x="666" y="0" type="line"/>
      <point x="671" y="10" type="line"/>
      <point x="569" y="131"/>
      <point x="357" y="342"/>
      <point x="266" y="413" type="curve"/>
      <point x="249" y="372" type="line"/>
      <point x="361" y="444"/>
      <point x="521" y="583"/>
      <point x="588" y="690" type="curve"/>
      <point x="583" y="700" type="line"/>
      <point x="379" y="700" type="line"/>
      <point x="379" y="680" type="line"/>
      <point x="396" y="671"/>
      <point x="430" y="657"/>
      <point x="430" y="643" type="curve"/>
      <point x="430" y="595"/>
      <point x="267" y="404"/>
      <point x="196" y="404" type="curve"/>
    </contour>
    <component base="I"/>
  </outline>
</glyph>
<glyph name="L" format="1">
  <advance width="513"/>
  <unicode hex="004C"/>
  <outline>
    <contour>
      <point x="383" y="66" type="curve"/>
      <point x="195" y="50" type="line"/>
      <point x="195" y="0" type="line"/>
      <point x="503" y="0" type="line"/>
      <point x="503" y="214" type="line"/>
      <point x="486" y="215" type="line"/>
      <point x="452" y="126"/>
      <point x="435" y="70"/>
    </contour>
    <contour>
      <point x="85" y="560" type="curve"/>
      <point x="93" y="395"/>
      <point x="96" y="230"/>
      <point x="85" y="65" type="curve"/>
      <point x="84" y="50"/>
      <point x="65" y="25"/>
      <point x="47" y="9" type="curve"/>
      <point x="49" y="0" type="line"/>
      <point x="195" y="0" type="line"/>
      <point x="195" y="632" type="line" smooth="yes"/>
      <point x="195" y="642"/>
      <point x="271" y="665"/>
      <point x="330" y="685" type="curve"/>
      <point x="330" y="700" type="line"/>
      <point x="45" y="700" type="line"/>
      <point x="40" y="687" type="line"/>
      <point x="61" y="660"/>
      <point x="82" y="620"/>
    </contour>
  </outline>
</glyph>
<glyph name="M" format="1">
  <advance width="831"/>
  <unicode hex="004D"/>
  <outline>
    <contour>
      <point x="188" y="561" type="curve"/>
      <point x="102" y="100" type="line" smooth="yes"/>
      <point x="94" y="59"/>
      <point x="151" y="43"/>
      <point x="222" y="20" type="curve"/>
      <point x="222" y="0" type="line"/>
      <point x="15" y="0" type="line"/>
      <point x="10" y="10" type="line"/>
      <point x="75" y="288"/>
      <point x="130" y="513"/>
      <point x="178" y="723" type="curve"/>
      <point x="222" y="723" type="line"/>
      <point x="408" y="219" type="line"/>
      <point x="631" y="723" type="line"/>
      <point x="663" y="723" type="line"/>
      <point x="706" y="491"/>
      <point x="760" y="258"/>
      <point x="821" y="10" type="curve"/>
      <point x="816" y="0" type="line"/>
      <point x="589" y="0" type="line"/>
      <point x="589" y="20" type="line"/>
      <point x="623" y="34"/>
      <point x="685" y="64"/>
      <point x="678" y="105" type="curve"/>
      <point x="600" y="537" type="line"/>
      <point x="513" y="334"/>
      <point x="429" y="101"/>
      <point x="413" y="-7" type="curve"/>
      <point x="375" y="-7" type="line"/>
      <point x="345" y="124"/>
      <point x="253" y="397"/>
    </contour>
  </outline>
</glyph>
<glyph name="N" format="1">
  <advance width="763"/>
  <unicode hex="004E"/>
  <outline>
    <contour>
      <point x="723" y="700" type="line"/>
      <point x="493" y="700" type="line"/>
      <point x="493" y="680" type="line"/>
      <point x="529" y="663"/>
      <point x="578" y="639"/>
      <point x="578" y="609" type="curve"/>
      <point x="578" y="333" type="line"/>
      <point x="459" y="407"/>
      <point x="317" y="506"/>
      <point x="194" y="604" type="curve"/>
      <point x="194" y="646"/>
      <point x="203" y="660"/>
      <point x="221" y="680" type="curve"/>
      <point x="221" y="700" type="line"/>
      <point x="55" y="700" type="line"/>
      <point x="55" y="680" type="line"/>
      <point x="70" y="650"/>
      <point x="90" y="620"/>
      <point x="90" y="520" type="curve"/>
      <point x="90" y="140" type="line" smooth="yes"/>
      <point x="90" y="80"/>
      <point x="65" y="43"/>
      <point x="40" y="20" type="curve"/>
      <point x="40" y="0" type="line"/>
      <point x="254" y="0" type="line"/>
      <point x="254" y="20" type="line"/>
      <point x="229" y="34"/>
      <point x="190" y="60"/>
      <point x="190" y="90" type="curve"/>
      <point x="190" y="495" type="line"/>
      <point x="315" y="418"/>
      <point x="458" y="319"/>
      <point x="578" y="221" type="curve"/>
      <point x="578" y="121" type="line" smooth="yes"/>
      <point x="578" y="81"/>
      <point x="546" y="51"/>
      <point x="493" y="20" type="curve"/>
      <point x="493" y="0" type="line"/>
      <point x="701" y="0" type="line"/>
      <point x="701" y="20" type="line"/>
      <point x="688" y="36"/>
      <point x="678" y="59"/>
      <point x="678" y="230" type="curve"/>
      <point x="678" y="527" type="line" smooth="yes"/>
      <point x="678" y="631"/>
      <point x="691" y="650"/>
      <point x="723" y="680" type="curve"/>
    </contour>
  </outline>
</glyph>
<glyph name="O" format="1">
  <advance width="760"/>
  <unicode hex="004F"/>
  <outline>
    <contour>
      <point x="375" y="-10" type="curve"/>
      <point x="565" y="-10"/>
      <point x="710" y="151"/>
      <point x="710" y="351" type="curve"/>
      <point x="710" y="551"/>
      <point x="570" y="710"/>
      <point x="380" y="710" type="curve"/>
      <point x="200" y="710"/>
      <point x="51" y="551"/>
      <point x="51" y="351" type="curve"/>
      <point x="51" y="151"/>
      <point x="185" y="-10"/>
    </contour>
    <contour>
      <point x="380" y="50" type="curve"/>
      <point x="240" y="50"/>
      <point x="170" y="201"/>
      <point x="170" y="351" type="curve"/>
      <point x="170" y="501"/>
      <point x="240" y="655"/>
      <point x="380" y="655" type="curve"/>
      <point x="520" y="655"/>
      <point x="590" y="501"/>
      <point x="590" y="351" type="curve"/>
      <point x="590" y="201"/>
      <point x="520" y="50"/>
    </contour>
  </outline>
</glyph>
<glyph name="P" format="1">
  <advance width="634"/>
  <unicode hex="0050"/>
  <outline>
    <contour>
      <point x="341" y="700" type="curve"/>
      <point x="241" y="700"/>
      <point x="140" y="700"/>
      <point x="40" y="705" type="curve"/>
      <point x="40" y="685" type="line"/>
      <point x="59" y="673"/>
      <point x="85" y="650"/>
      <point x="85" y="550" type="curve"/>
      <point x="85" y="0" type="line"/>
      <point x="85" y="0" type="line"/>
      <point x="270" y="0" type="line"/>
      <point x="270" y="22" type="line"/>
      <point x="235" y="36"/>
      <point x="195" y="55"/>
      <point x="195" y="80" type="curve"/>
      <point x="195" y="650" type="line"/>
      <point x="251" y="650" type="line" smooth="yes"/>
      <point x="413" y="650"/>
      <point x="489" y="586"/>
      <point x="489" y="479" type="curve"/>
      <point x="489" y="360"/>
      <point x="408" y="283"/>
      <point x="259" y="309" type="curve"/>
      <point x="255" y="302" type="line"/>
      <point x="280" y="270" type="line"/>
      <point x="427" y="244"/>
      <point x="604" y="323"/>
      <point x="604" y="476" type="curve"/>
      <point x="604" y="596"/>
      <point x="491" y="700"/>
    </contour>
  </outline>
</glyph>
<glyph name="Q" format="1">
  <advance width="746"/>
  <unicode hex="0051"/>
  <outline>
    <contour>
      <point x="443" y="26" type="curve"/>
      <point x="328" y="0" type="line"/>
      <point x="497" y="-77"/>
      <point x="682" y="-222"/>
      <point x="779" y="-222" type="curve"/>
      <point x="789" y="-222"/>
      <point x="910" y="-144"/>
      <point x="1060" y="-53" type="curve"/>
      <point x="1036" y="-18" type="line"/>
      <point x="888" y="-97"/>
      <point x="851" y="-120"/>
      <point x="803" y="-120" type="curve"/>
      <point x="741" y="-120"/>
      <point x="623" y="-61"/>
    </contour>
    <component base="O"/>
  </outline>
</glyph>
<glyph name="R" format="1">
  <advance width="630"/>
  <unicode hex="0052"/>
  <outline>
    <contour>
      <point x="312" y="333" type="curve"/>
      <point x="399" y="353"/>
      <point x="498" y="423"/>
      <point x="498" y="523" type="curve"/>
      <point x="498" y="633"/>
      <point x="400" y="700"/>
      <point x="250" y="700" type="curve"/>
      <point x="40" y="700" type="line"/>
      <point x="40" y="700" type="line"/>
      <point x="40" y="0" type="line"/>
      <point x="40" y="0" type="line"/>
      <point x="140" y="0" type="line"/>
      <point x="140" y="0" type="line"/>
      <point x="140" y="322" type="line"/>
      <point x="161" y="319"/>
      <point x="181" y="318"/>
      <point x="202" y="318" type="curve"/>
      <point x="236" y="288"/>
      <point x="343" y="176"/>
      <point x="405" y="95" type="curve"/>
      <point x="431" y="61"/>
      <point x="429" y="37"/>
      <point x="400" y="20" type="curve"/>
      <point x="400" y="0" type="line"/>
      <point x="605" y="0" type="line"/>
      <point x="610" y="10" type="line"/>
      <point x="512" y="123"/>
      <point x="369" y="274"/>
    </contour>
    <contour>
      <point x="197" y="368" type="curve"/>
      <point x="178" y="368"/>
      <point x="159" y="370"/>
      <point x="140" y="373" type="curve"/>
      <point x="140" y="650" type="line"/>
      <point x="191" y="650" type="line" smooth="yes"/>
      <point x="321" y="650"/>
      <point x="378" y="603"/>
      <point x="378" y="513" type="curve"/>
      <point x="378" y="420"/>
      <point x="304" y="368"/>
    </contour>
  </outline>
</glyph>
<glyph name="S" format="1">
  <advance width="513"/>
  <unicode hex="0053"/>
  <outline>
    <contour>
      <point x="480" y="700" type="line"/>
      <point x="398" y="550" type="line"/>
      <point x="391" y="550" type="line"/>
      <point x="338" y="586"/>
      <point x="265" y="628"/>
      <point x="213" y="628" type="curve"/>
      <point x="175" y="628"/>
      <point x="140" y="612"/>
      <point x="140" y="564" type="curve"/>
      <point x="140" y="532"/>
      <point x="158" y="491"/>
      <point x="291" y="439" type="curve"/>
      <point x="428" y="386"/>
      <point x="488" y="305"/>
      <point x="488" y="191" type="curve"/>
      <point x="488" y="86"/>
      <point x="398" y="-10"/>
      <point x="277" y="-10" type="curve"/>
      <point x="187" y="-10"/>
      <point x="128" y="44"/>
      <point x="111" y="44" type="curve"/>
      <point x="39" y="-6" type="line"/>
      <point x="30" y="0" type="line"/>
      <point x="94" y="179" type="line"/>
      <point x="100" y="179" type="line"/>
      <point x="153" y="118"/>
      <point x="230" y="75"/>
      <point x="313" y="75" type="curve"/>
      <point x="370" y="75"/>
      <point x="416" y="102"/>
      <point x="416" y="166" type="curve"/>
      <point x="416" y="223"/>
      <point x="378" y="268"/>
      <point x="294" y="301" type="curve"/>
      <point x="122" y="369"/>
      <point x="65" y="422"/>
      <point x="65" y="514" type="curve"/>
      <point x="65" y="627"/>
      <point x="164" y="710"/>
      <point x="271" y="710" type="curve"/>
      <point x="338" y="710"/>
      <point x="393" y="666"/>
      <point x="412" y="666" type="curve"/>
      <point x="471" y="706" type="line"/>
    </contour>
  </outline>
</glyph>
<glyph name="T" format="1">
  <advance width="674"/>
  <unicode hex="0054"/>
  <outline>
    <contour>
      <point x="374" y="0" type="line"/>
      <point x="374" y="620" type="line"/>
      <point x="274" y="620" type="line"/>
      <point x="274" y="0" type="line"/>
      <point x="274" y="0" type="line"/>
      <point x="374" y="0" type="line"/>
    </contour>
    <contour>
      <point x="117" y="613" type="curve"/>
      <point x="292" y="625"/>
      <point x="500" y="599"/>
      <point x="614" y="614" type="curve"/>
      <point x="674" y="700" type="line"/>
      <point x="665" y="710" type="line"/>
      <point x="647" y="700"/>
      <point x="596" y="695"/>
      <point x="486" y="695" type="curve"/>
      <point x="363" y="695"/>
      <point x="255" y="705"/>
      <point x="162" y="705" type="curve"/>
      <point x="63" y="705"/>
      <point x="0" y="661"/>
      <point x="0" y="610" type="curve"/>
      <point x="0" y="551"/>
      <point x="51" y="526"/>
      <point x="71" y="526" type="curve"/>
      <point x="80" y="548" type="line"/>
      <point x="45" y="574"/>
      <point x="52" y="605"/>
    </contour>
  </outline>
</glyph>
<glyph name="U" format="1">
  <advance width="711"/>
  <unicode hex="0055"/>
  <outline>
    <contour>
      <point x="193" y="567" type="curve"/>
      <point x="193" y="319" type="line" smooth="yes"/>
      <point x="193" y="118"/>
      <point x="225" y="57"/>
      <point x="345" y="57" type="curve"/>
      <point x="396" y="57"/>
      <point x="460" y="88"/>
      <point x="527" y="148" type="curve"/>
      <point x="527" y="614" type="line" smooth="yes"/>
      <point x="527" y="637"/>
      <point x="487" y="655"/>
      <point x="443" y="680" type="curve"/>
      <point x="443" y="700" type="line"/>
      <point x="661" y="700" type="line"/>
      <point x="661" y="680" type="line"/>
      <point x="651" y="663"/>
      <point x="635" y="644"/>
      <point x="631" y="564" type="curve"/>
      <point x="625" y="438"/>
      <point x="625" y="311"/>
      <point x="631" y="184" type="curve"/>
      <point x="636" y="74"/>
      <point x="641" y="51"/>
      <point x="671" y="20" type="curve"/>
      <point x="671" y="0" type="line"/>
      <point x="539" y="0" type="line"/>
      <point x="535" y="30"/>
      <point x="533" y="60"/>
      <point x="531" y="90" type="curve"/>
      <point x="474" y="46"/>
      <point x="394" y="-10"/>
      <point x="302" y="-10" type="curve"/>
      <point x="171" y="-10"/>
      <point x="90" y="51"/>
      <point x="92" y="211" type="curve"/>
      <point x="93" y="306"/>
      <point x="89" y="372"/>
      <point x="85" y="597" type="curve"/>
      <point x="84" y="641"/>
      <point x="58" y="663"/>
      <point x="40" y="679" type="curve"/>
      <point x="40" y="700" type="line"/>
      <point x="250" y="700" type="line"/>
      <point x="250" y="680" type="line"/>
      <point x="205" y="638"/>
      <point x="193" y="631"/>
    </contour>
  </outline>
</glyph>
<glyph name="V" format="1">
  <advance width="743"/>
  <unicode hex="0056"/>
  <outline>
    <contour>
      <point x="5" y="690" type="curve"/>
      <point x="10" y="700" type="line"/>
      <point x="242" y="700" type="line"/>
      <point x="242" y="680" type="line"/>
      <point x="192" y="648"/>
      <point x="172" y="630"/>
      <point x="184" y="604" type="curve"/>
      <point x="397" y="151" type="line"/>
      <point x="608" y="610" type="line" smooth="yes"/>
      <point x="618" y="632"/>
      <point x="598" y="650"/>
      <point x="558" y="680" type="curve"/>
      <point x="558" y="700" type="line"/>
      <point x="733" y="700" type="line"/>
      <point x="738" y="690" type="line"/>
      <point x="636" y="495"/>
      <point x="420" y="106"/>
      <point x="399" y="-10" type="curve"/>
      <point x="362" y="-10" type="line"/>
      <point x="260" y="220"/>
      <point x="135" y="463"/>
    </contour>
  </outline>
</glyph>
<glyph name="W" format="1">
  <advance width="853"/>
  <unicode hex="0057"/>
  <outline>
    <contour>
      <point x="238" y="-5" type="line"/>
      <point x="5" y="695" type="line"/>
      <point x="5" y="700" type="line"/>
      <point x="191" y="700" type="line"/>
      <point x="191" y="680" type="line"/>
      <point x="150" y="646"/>
      <point x="135" y="631"/>
      <point x="141" y="610" type="curve"/>
      <point x="266" y="197" type="line"/>
      <point x="392" y="563" type="line"/>
      <point x="378" y="608"/>
      <point x="362" y="642"/>
      <point x="345" y="685" type="curve"/>
      <point x="350" y="700" type="line"/>
      <point x="537" y="700" type="line"/>
      <point x="537" y="680" type="line"/>
      <point x="505" y="657"/>
      <point x="488" y="637"/>
      <point x="497" y="604" type="curve"/>
      <point x="608" y="197" type="line"/>
      <point x="752" y="610" type="line" smooth="yes"/>
      <point x="763" y="642"/>
      <point x="750" y="653"/>
      <point x="717" y="680" type="curve"/>
      <point x="717" y="700" type="line"/>
      <point x="848" y="700" type="line"/>
      <point x="848" y="695" type="line"/>
      <point x="773" y="501"/>
      <point x="621" y="105"/>
      <point x="605" y="-5" type="curve"/>
      <point x="574" y="-5" type="line"/>
      <point x="423" y="473" type="line"/>
      <point x="338" y="253"/>
      <point x="287" y="92"/>
      <point x="263" y="-5" type="curve"/>
    </contour>
  </outline>
</glyph>
<glyph name="X" format="1">
  <advance width="739"/>
  <unicode hex="0058"/>
  <outline>
    <contour>
      <point x="62" y="690" type="curve"/>
      <point x="67" y="700" type="line"/>
      <point x="264" y="700" type="line"/>
      <point x="264" y="680" type="line"/>
      <point x="239" y="670"/>
      <point x="220" y="658"/>
      <point x="229" y="644" type="curve"/>
      <point x="359" y="455"/>
      <point x="527" y="233"/>
      <point x="707" y="10" type="curve"/>
      <point x="702" y="0" type="line"/>
      <point x="489" y="0" type="line"/>
      <point x="489" y="18" type="line"/>
      <point x="529" y="42"/>
      <point x="546" y="56"/>
      <point x="535" y="71" type="curve"/>
      <point x="386" y="276"/>
      <point x="224" y="492"/>
    </contour>
    <contour>
      <point x="366" y="384" type="line"/>
      <point x="542" y="635" type="line"/>
      <point x="558" y="658"/>
      <point x="529" y="665"/>
      <point x="466" y="680" type="curve"/>
      <point x="466" y="700" type="line"/>
      <point x="682" y="700" type="line"/>
      <point x="687" y="690" type="line"/>
      <point x="394" y="357" type="line"/>
    </contour>
    <contour>
      <point x="361" y="325" type="line"/>
      <point x="175" y="84" type="line"/>
      <point x="153" y="55"/>
      <point x="195" y="38"/>
      <point x="250" y="20" type="curve"/>
      <point x="250" y="0" type="line"/>
      <point x="35" y="0" type="line"/>
      <point x="30" y="10" type="line"/>
      <point x="336" y="364" type="line"/>
    </contour>
  </outline>
</glyph>
<glyph name="Y" format="1">
  <advance width="663"/>
  <unicode hex="0059"/>
  <outline>
    <contour>
      <point x="288" y="314" type="line"/>
      <point x="366" y="364" type="line"/>
      <point x="175" y="640" type="line" smooth="yes"/>
      <point x="165" y="655"/>
      <point x="180" y="667"/>
      <point x="211" y="680" type="curve"/>
      <point x="211" y="700" type="line"/>
      <point x="15" y="700" type="line"/>
      <point x="10" y="690" type="line"/>
    </contour>
    <contour>
      <point x="516" y="630" type="curve"/>
      <point x="353" y="360" type="line"/>
      <point x="375" y="326" type="line"/>
      <point x="653" y="690" type="line"/>
      <point x="648" y="700" type="line"/>
      <point x="433" y="700" type="line"/>
      <point x="433" y="680" type="line"/>
      <point x="488" y="666"/>
      <point x="533" y="658"/>
    </contour>
    <contour>
      <point x="393" y="0" type="line"/>
      <point x="393" y="360" type="line"/>
      <point x="283" y="360" type="line"/>
      <point x="283" y="0" type="line"/>
      <point x="283" y="0" type="line"/>
      <point x="393" y="0" type="line"/>
    </contour>
  </outline>
</glyph>
<glyph name="Z" format="1">
  <advance width="684"/>
  <unicode hex="005A"/>
  <outline>
    <contour>
      <point x="102" y="710" type="curve"/>
      <point x="20" y="551" type="line"/>
      <point x="49" y="542" type="line"/>
      <point x="91" y="600"/>
      <point x="203" y="607"/>
      <point x="425" y="598" type="curve"/>
      <point x="340" y="463"/>
      <point x="269" y="292"/>
      <point x="155" y="109" type="curve"/>
      <point x="120" y="53"/>
      <point x="93" y="30"/>
      <point x="29" y="-15" type="curve"/>
      <point x="46" y="-50" type="line"/>
      <point x="84" y="-29"/>
      <point x="118" y="4"/>
      <point x="224" y="4" type="curve"/>
      <point x="338" y="4"/>
      <point x="496" y="-10"/>
      <point x="535" y="-10" type="curve"/>
      <point x="593" y="-10"/>
      <point x="609" y="21"/>
      <point x="664" y="142" type="curve"/>
      <point x="643" y="152" type="line"/>
      <point x="609" y="110"/>
      <point x="561" y="94"/>
      <point x="495" y="94" type="curve"/>
      <point x="455" y="94"/>
      <point x="259" y="104"/>
      <point x="213" y="102" type="curve"/>
      <point x="315" y="245"/>
      <point x="385" y="416"/>
      <point x="477" y="566" type="curve"/>
      <point x="513" y="625"/>
      <point x="556" y="659"/>
      <point x="609" y="689" type="curve"/>
      <point x="600" y="720" type="line"/>
      <point x="565" y="714"/>
      <point x="529" y="700"/>
      <point x="480" y="700" type="curve"/>
      <point x="363" y="700"/>
      <point x="218" y="703"/>
    </contour>
  </outline>
</glyph>
<glyph name="a" format="1">
  <advance width="417"/>
  <unicode hex="0061"/>
  <outline>
    <contour>
      <point x="256" y="140" type="curve"/>
      <point x="256" y="90" type="line"/>
      <point x="101" y="-10" type="line"/>
      <point x="96" y="-10" type="line"/>
      <point x="48" y="15"/>
      <point x="20" y="71"/>
      <point x="20" y="124" type="curve"/>
      <point x="20" y="139"/>
      <point x="33" y="173"/>
      <point x="89" y="209" type="curve"/>
      <point x="253" y="315" type="line"/>
      <point x="253" y="283" type="line"/>
      <point x="191" y="243" type="line" smooth="yes"/>
      <point x="138" y="209"/>
      <point x="119" y="173"/>
      <point x="119" y="149" type="curve"/>
      <point x="119" y="109"/>
      <point x="138" y="90"/>
      <point x="168" y="90" type="curve"/>
      <point x="198" y="90"/>
      <point x="237" y="120"/>
    </contour>
    <contour>
      <point x="353" y="363" type="curve"/>
      <point x="353" y="153" type="line"/>
      <point x="253" y="92" type="line"/>
      <point x="253" y="320" type="line" smooth="yes"/>
      <point x="253" y="350"/>
      <point x="210" y="373"/>
      <point x="180" y="373" type="curve"/>
      <point x="130" y="373"/>
      <point x="84" y="345"/>
      <point x="38" y="302" type="curve"/>
      <point x="21" y="322" type="line"/>
      <point x="73" y="379"/>
      <point x="170" y="460"/>
      <point x="230" y="460" type="curve"/>
      <point x="270" y="460"/>
      <point x="353" y="403"/>
    </contour>
    <contour>
      <point x="253" y="90" type="curve"/>
      <point x="253" y="275" type="line"/>
      <point x="353" y="319" type="line"/>
      <point x="353" y="141" type="line" smooth="yes"/>
      <point x="353" y="119"/>
      <point x="374" y="97"/>
      <point x="407" y="90" type="curve"/>
      <point x="407" y="75" type="line"/>
      <point x="337" y="-10" type="line"/>
      <point x="274" y="4"/>
      <point x="253" y="76"/>
    </contour>
    <contour>
      <point x="200" y="0" type="move" name="bottom"/>
    </contour>
    <contour>
      <point x="200" y="415" type="move" name="top"/>
    </contour>
  </outline>
</glyph>
<glyph name="b" format="1">
  <advance width="485"/>
  <unicode hex="0062"/>
  <outline>
    <contour>
      <point x="315" y="460" type="curve"/>
      <point x="160" y="360" type="line"/>
      <point x="169" y="700" type="line"/>
      <point x="159" y="710" type="line"/>
      <point x="30" y="650" type="line"/>
      <point x="30" y="645" type="line"/>
      <point x="39" y="624"/>
      <point x="62" y="493"/>
      <point x="62" y="315" type="curve"/>
      <point x="62" y="90" type="line"/>
      <point x="75" y="57"/>
      <point x="192" y="-10"/>
      <point x="227" y="-10" type="curve"/>
      <point x="289" y="19"/>
      <point x="365" y="64"/>
      <point x="393" y="86" type="curve"/>
      <point x="445" y="127"/>
      <point x="465" y="192"/>
      <point x="465" y="265" type="curve"/>
      <point x="465" y="375"/>
      <point x="401" y="437"/>
    </contour>
    <contour>
      <point x="290" y="80" type="curve"/>
      <point x="270" y="80"/>
      <point x="160" y="126"/>
      <point x="160" y="166" type="curve"/>
      <point x="160" y="298" type="line"/>
      <point x="174" y="329"/>
      <point x="213" y="360"/>
      <point x="259" y="360" type="curve"/>
      <point x="326" y="360"/>
      <point x="365" y="290"/>
      <point x="365" y="220" type="curve"/>
      <point x="365" y="135"/>
      <point x="305" y="80"/>
    </contour>
  </outline>
</glyph>
<glyph name="c" format="1">
  <advance width="367"/>
  <unicode hex="0063"/>
  <outline>
    <contour>
      <point x="275" y="321" type="curve"/>
      <point x="367" y="382" type="line"/>
      <point x="367" y="392" type="line"/>
      <point x="331" y="420"/>
      <point x="291" y="442"/>
      <point x="247" y="460" type="curve"/>
      <point x="71" y="347" type="line"/>
      <point x="48" y="308"/>
      <point x="40" y="228"/>
      <point x="40" y="174" type="curve"/>
      <point x="40" y="84"/>
      <point x="100" y="-10"/>
      <point x="170" y="-10" type="curve"/>
      <point x="189" y="-10"/>
      <point x="274" y="34"/>
      <point x="338" y="77" type="curve"/>
      <point x="347" y="83" type="line"/>
      <point x="334" y="110" type="line"/>
      <point x="324" y="105" type="line" smooth="yes"/>
      <point x="300" y="93"/>
      <point x="264" y="90"/>
      <point x="240" y="90" type="curve"/>
      <point x="160" y="90"/>
      <point x="133" y="154"/>
      <point x="133" y="244" type="curve"/>
      <point x="133" y="305"/>
      <point x="158" y="366"/>
      <point x="175" y="373" type="curve"/>
      <point x="207" y="366"/>
      <point x="247" y="341"/>
    </contour>
  </outline>
</glyph>
<glyph name="d" format="1">
  <advance width="537"/>
  <unicode hex="0064"/>
  <outline>
    <contour>
      <point x="291" y="619" type="curve"/>
      <point x="291" y="643" type="line"/>
      <point x="338" y="668"/>
      <point x="388" y="689"/>
      <point x="442" y="710" type="curve"/>
      <point x="451" y="700" type="line"/>
      <point x="451" y="169" type="line" smooth="yes"/>
      <point x="451" y="119"/>
      <point x="458" y="92"/>
      <point x="508" y="102" type="curve"/>
      <point x="517" y="79" type="line"/>
      <point x="361" y="-10" type="line"/>
      <point x="359" y="-10" type="line"/>
      <point x="354" y="-10"/>
      <point x="344" y="49"/>
      <point x="346" y="90" type="curve"/>
      <point x="191" y="-10" type="line"/>
      <point x="101" y="-10"/>
      <point x="40" y="70"/>
      <point x="40" y="150" type="curve"/>
      <point x="40" y="290"/>
      <point x="138" y="377"/>
      <point x="277" y="408" type="curve"/>
      <point x="351" y="425" type="line"/>
      <point x="351" y="572" type="line" smooth="yes"/>
      <point x="351" y="582"/>
      <point x="331" y="619"/>
    </contour>
    <contour>
      <point x="246" y="90" type="curve"/>
      <point x="293" y="90"/>
      <point x="346" y="128"/>
      <point x="356" y="177" type="curve"/>
      <point x="356" y="260" type="line" smooth="yes"/>
      <point x="356" y="309"/>
      <point x="325" y="360"/>
      <point x="255" y="360" type="curve"/>
      <point x="185" y="360"/>
      <point x="140" y="290"/>
      <point x="140" y="220" type="curve"/>
      <point x="140" y="150"/>
      <point x="176" y="90"/>
    </contour>
  </outline>
</glyph>
<glyph name="e" format="1">
  <advance width="384"/>
  <unicode hex="0065"/>
  <outline>
    <contour>
      <point x="150" y="150" type="line"/>
      <point x="135" y="176" type="line"/>
      <point x="177" y="211" type="line" smooth="yes"/>
      <point x="218" y="246"/>
      <point x="251" y="282"/>
      <point x="251" y="311" type="curve"/>
      <point x="251" y="350"/>
      <point x="192" y="385"/>
      <point x="175" y="385" type="curve"/>
      <point x="145" y="356"/>
      <point x="136" y="310"/>
      <point x="136" y="257" type="curve"/>
      <point x="136" y="152"/>
      <point x="180" y="100"/>
      <point x="264" y="100" type="curve"/>
      <point x="294" y="100"/>
      <point x="329" y="105"/>
      <point x="350" y="119" type="curve"/>
      <point x="369" y="95" type="line"/>
      <point x="234" y="-10" type="line"/>
      <point x="104" y="-10"/>
      <point x="40" y="87"/>
      <point x="40" y="197" type="curve"/>
      <point x="40" y="251"/>
      <point x="44" y="294"/>
      <point x="58" y="343" type="curve"/>
      <point x="243" y="460" type="line"/>
      <point x="282" y="453"/>
      <point x="339" y="407"/>
      <point x="357" y="326" type="curve"/>
    </contour>
  </outline>
</glyph>
<glyph name="f" format="1">
  <advance width="336"/>
  <unicode hex="0066"/>
  <outline>
    <contour>
      <point x="75" y="0" type="line"/>
      <point x="175" y="0" type="line"/>
      <point x="175" y="360" type="line"/>
      <point x="306" y="360" type="line"/>
      <point x="316" y="450" type="line"/>
      <point x="175" y="450" type="line"/>
      <point x="175" y="487" type="line" smooth="yes"/>
      <point x="175" y="551"/>
      <point x="185" y="610"/>
      <point x="205" y="632" type="curve"/>
      <point x="230" y="641"/>
      <point x="289" y="607"/>
      <point x="322" y="554" type="curve"/>
      <point x="324" y="553" type="line"/>
      <point x="436" y="625" type="line"/>
      <point x="436" y="627" type="line"/>
      <point x="399" y="672"/>
      <point x="327" y="710"/>
      <point x="247" y="710" type="curve"/>
      <point x="75" y="599" type="line"/>
      <point x="75" y="435" type="line"/>
      <point x="10" y="397" type="line"/>
      <point x="10" y="360" type="line"/>
      <point x="75" y="360" type="line"/>
    </contour>
  </outline>
</glyph>
<glyph name="g" format="1">
  <advance width="517"/>
  <unicode hex="0067"/>
  <outline>
    <contour>
      <point x="20" y="228" type="curve"/>
      <point x="20" y="268"/>
      <point x="27" y="302"/>
      <point x="44" y="331" type="curve"/>
      <point x="244" y="460" type="line"/>
      <point x="315" y="443"/>
      <point x="389" y="390"/>
      <point x="413" y="305" type="curve"/>
      <point x="310" y="148" type="line"/>
      <point x="390" y="114"/>
      <point x="431" y="60"/>
      <point x="431" y="-9" type="curve"/>
      <point x="431" y="-109"/>
      <point x="286" y="-190"/>
      <point x="226" y="-190" type="curve"/>
      <point x="126" y="-190"/>
      <point x="30" y="-129"/>
      <point x="30" y="-39" type="curve"/>
      <point x="30" y="-20"/>
      <point x="31" y="-9"/>
      <point x="38" y="8" type="curve"/>
      <point x="159" y="87" type="line"/>
      <point x="90" y="106"/>
      <point x="20" y="151"/>
    </contour>
    <contour>
      <point x="115" y="278" type="curve"/>
      <point x="115" y="218"/>
      <point x="161" y="181"/>
      <point x="271" y="159" type="curve"/>
      <point x="291" y="187"/>
      <point x="308" y="215"/>
      <point x="308" y="255" type="curve"/>
      <point x="308" y="315"/>
      <point x="242" y="360"/>
      <point x="172" y="360" type="curve"/>
      <point x="157" y="360"/>
      <point x="115" y="318"/>
    </contour>
    <contour>
      <point x="130" y="-20" type="curve"/>
      <point x="130" y="-90"/>
      <point x="189" y="-140"/>
      <point x="269" y="-140" type="curve"/>
      <point x="289" y="-140"/>
      <point x="331" y="-109"/>
      <point x="331" y="-49" type="curve"/>
      <point x="331" y="22"/>
      <point x="285" y="59"/>
      <point x="195" y="77" type="curve"/>
      <point x="162" y="59"/>
      <point x="130" y="20"/>
    </contour>
    <contour>
      <point x="377" y="301" type="line"/>
      <point x="324" y="381" type="line"/>
      <point x="512" y="381" type="line"/>
      <point x="492" y="301" type="line"/>
    </contour>
  </outline>
</glyph>
<glyph name="h" format="1">
  <advance width="519"/>
  <unicode hex="0068"/>
  <outline>
    <contour>
      <point x="150" y="0" type="line"/>
      <point x="50" y="0" type="line"/>
      <point x="50" y="174" type="line"/>
      <point x="150" y="360" type="line"/>
      <point x="215" y="402"/>
      <point x="267" y="433"/>
      <point x="317" y="460" type="curve"/>
      <point x="428" y="443"/>
      <point x="499" y="353"/>
      <point x="499" y="233" type="curve"/>
      <point x="499" y="186"/>
      <point x="486" y="145"/>
      <point x="475" y="124" type="curve"/>
      <point x="454" y="84"/>
      <point x="346" y="-10"/>
      <point x="273" y="-10" type="curve"/>
      <point x="233" y="-10"/>
      <point x="205" y="16"/>
      <point x="205" y="56" type="curve"/>
      <point x="205" y="91"/>
      <point x="241" y="110"/>
      <point x="269" y="110" type="curve"/>
      <point x="305" y="110"/>
      <point x="289" y="40"/>
      <point x="333" y="40" type="curve"/>
      <point x="350" y="40"/>
      <point x="399" y="97"/>
      <point x="399" y="183" type="curve"/>
      <point x="399" y="273"/>
      <point x="341" y="360"/>
      <point x="251" y="360" type="curve"/>
      <point x="210" y="360"/>
      <point x="171" y="333"/>
      <point x="150" y="305" type="curve"/>
    </contour>
    <contour>
      <point x="20" y="649" type="curve"/>
      <point x="20" y="654" type="line"/>
      <point x="140" y="710" type="line"/>
      <point x="150" y="700" type="line"/>
      <point x="150" y="181" type="line"/>
      <point x="50" y="90" type="line"/>
      <point x="50" y="465" type="line" smooth="yes"/>
      <point x="50" y="533"/>
      <point x="29" y="628"/>
    </contour>
  </outline>
</glyph>
<glyph name="i" format="1">
  <advance width="271"/>
  <unicode hex="0069"/>
  <outline>
    <contour>
      <point x="119" y="536" type="line"/>
      <point x="194" y="705" type="line"/>
      <point x="191" y="710" type="line"/>
      <point x="106" y="710" type="line"/>
      <point x="89" y="536" type="line"/>
    </contour>
    <contour>
      <point x="177" y="181" type="curve"/>
      <point x="177" y="391" type="line"/>
      <point x="151" y="424"/>
      <point x="125" y="447"/>
      <point x="97" y="460" type="curve"/>
      <point x="92" y="460" type="line"/>
      <point x="30" y="365" type="line"/>
      <point x="34" y="360" type="line"/>
      <point x="52" y="360"/>
      <point x="83" y="329"/>
      <point x="87" y="310" type="curve"/>
      <point x="77" y="90" type="line" smooth="yes"/>
      <point x="76" y="65"/>
      <point x="125" y="0"/>
      <point x="147" y="-10" type="curve"/>
      <point x="154" y="-10" type="line"/>
      <point x="271" y="75" type="line"/>
      <point x="271" y="90" type="line"/>
      <point x="224" y="90"/>
      <point x="177" y="107"/>
    </contour>
  </outline>
</glyph>
<glyph name="j" format="1">
  <advance width="216"/>
  <unicode hex="006A"/>
  <outline>
    <contour>
      <point x="26" y="381" type="line"/>
      <point x="151" y="461" type="line"/>
      <point x="165" y="451" type="line"/>
      <point x="165" y="-12" type="line" smooth="yes"/>
      <point x="165" y="-98"/>
      <point x="117" y="-170"/>
      <point x="-13" y="-190" type="curve"/>
      <point x="-20" y="-164" type="line"/>
      <point x="40" y="-144"/>
      <point x="65" y="-98"/>
      <point x="65" y="-20" type="curve"/>
      <point x="65" y="285" type="line" smooth="yes"/>
      <point x="65" y="325"/>
      <point x="39" y="364"/>
      <point x="26" y="376" type="curve"/>
    </contour>
    <contour>
      <point x="164" y="710" type="line"/>
      <point x="75" y="710" type="line"/>
      <point x="58" y="536" type="line"/>
      <point x="88" y="536" type="line"/>
      <point x="166" y="705" type="line"/>
    </contour>
  </outline>
</glyph>
<glyph name="k" format="1">
  <advance width="409"/>
  <unicode hex="006B"/>
  <outline>
    <contour>
      <point x="270" y="239" type="curve"/>
      <point x="372" y="292" type="line"/>
      <point x="382" y="312"/>
      <point x="389" y="340"/>
      <point x="386" y="362" type="curve"/>
      <point x="372" y="408"/>
      <point x="334" y="449"/>
      <point x="298" y="460" type="curve"/>
      <point x="263" y="449"/>
      <point x="189" y="399"/>
      <point x="133" y="359" type="curve"/>
      <point x="133" y="700" type="line"/>
      <point x="123" y="710" type="line"/>
      <point x="20" y="676" type="line"/>
      <point x="20" y="671" type="line"/>
      <point x="34" y="454"/>
      <point x="31" y="364"/>
      <point x="33" y="0" type="curve"/>
      <point x="133" y="0" type="line"/>
      <point x="133" y="168" type="line"/>
      <point x="134" y="168" type="line"/>
      <point x="180" y="188" type="line"/>
      <point x="239" y="169"/>
      <point x="272" y="117"/>
      <point x="277" y="94" type="curve"/>
      <point x="284" y="63"/>
      <point x="287" y="34"/>
      <point x="290" y="0" type="curve"/>
      <point x="395" y="0" type="line"/>
      <point x="395" y="47"/>
      <point x="381" y="120"/>
      <point x="372" y="137" type="curve"/>
      <point x="355" y="170"/>
      <point x="319" y="212"/>
    </contour>
    <contour>
      <point x="230" y="370" type="curve"/>
      <point x="252" y="370"/>
      <point x="268" y="360"/>
      <point x="276" y="335" type="curve"/>
      <point x="280" y="323"/>
      <point x="283" y="287"/>
      <point x="265" y="265" type="curve"/>
      <point x="133" y="193" type="line"/>
      <point x="133" y="327" type="line"/>
      <point x="162" y="351"/>
      <point x="206" y="370"/>
    </contour>
  </outline>
</glyph>
<glyph name="l" format="1">
  <advance width="244"/>
  <unicode hex="006C"/>
  <outline>
    <contour>
      <point x="140" y="710" type="line"/>
      <point x="20" y="633" type="line"/>
      <point x="20" y="628" type="line"/>
      <point x="29" y="607"/>
      <point x="50" y="533"/>
      <point x="50" y="485" type="curve"/>
      <point x="50" y="90" type="line"/>
      <point x="150" y="181" type="line"/>
      <point x="150" y="700" type="line"/>
    </contour>
    <contour>
      <point x="150" y="181" type="curve"/>
      <point x="50" y="90" type="line"/>
      <point x="49" y="65"/>
      <point x="98" y="0"/>
      <point x="120" y="-10" type="curve"/>
      <point x="127" y="-10" type="line"/>
      <point x="244" y="75" type="line"/>
      <point x="244" y="90" type="line"/>
      <point x="197" y="90"/>
      <point x="150" y="107"/>
    </contour>
  </outline>
</glyph>
<glyph name="m" format="1">
  <advance width="707"/>
  <unicode hex="006D"/>
  <outline>
    <contour>
      <point x="322" y="268" type="curve"/>
      <point x="322" y="0" type="line"/>
      <point x="422" y="0" type="line"/>
      <point x="422" y="318" type="line" smooth="yes"/>
      <point x="422" y="388"/>
      <point x="357" y="460"/>
      <point x="287" y="460" type="curve"/>
      <point x="247" y="434"/>
      <point x="208" y="400"/>
      <point x="172" y="360" type="curve"/>
      <point x="175" y="300" type="line"/>
      <point x="188" y="340"/>
      <point x="222" y="360"/>
      <point x="253" y="360" type="curve"/>
      <point x="303" y="360"/>
      <point x="322" y="318"/>
    </contour>
    <contour>
      <point x="562" y="268" type="curve"/>
      <point x="562" y="0" type="line"/>
      <point x="662" y="0" type="line"/>
      <point x="662" y="318" type="line" smooth="yes"/>
      <point x="662" y="388"/>
      <point x="607" y="460"/>
      <point x="537" y="460" type="curve"/>
      <point x="492" y="427"/>
      <point x="451" y="391"/>
      <point x="412" y="350" type="curve"/>
      <point x="422" y="300" type="line"/>
      <point x="433" y="326"/>
      <point x="464" y="360"/>
      <point x="499" y="360" type="curve"/>
      <point x="549" y="360"/>
      <point x="562" y="318"/>
    </contour>
    <contour>
      <point x="84" y="298" type="curve"/>
      <point x="84" y="0" type="line"/>
      <point x="184" y="0" type="line"/>
      <point x="184" y="348" type="line" smooth="yes"/>
      <point x="184" y="377"/>
      <point x="137" y="446"/>
      <point x="85" y="457" type="curve"/>
      <point x="71" y="460" type="line"/>
      <point x="10" y="365" type="line"/>
      <point x="14" y="360" type="line"/>
      <point x="30" y="360" type="line" smooth="yes"/>
      <point x="57" y="360"/>
      <point x="84" y="323"/>
    </contour>
  </outline>
</glyph>
<glyph name="n" format="1">
  <advance width="468"/>
  <unicode hex="006E"/>
  <outline>
    <contour>
      <point x="323" y="268" type="curve"/>
      <point x="323" y="0" type="line"/>
      <point x="423" y="0" type="line"/>
      <point x="423" y="328" type="line" smooth="yes"/>
      <point x="423" y="388"/>
      <point x="380" y="460"/>
      <point x="320" y="460" type="curve"/>
      <point x="315" y="460" type="line"/>
      <point x="258" y="433"/>
      <point x="207" y="391"/>
      <point x="163" y="351" type="curve"/>
      <point x="184" y="309" type="line"/>
      <point x="195" y="341"/>
      <point x="230" y="360"/>
      <point x="260" y="360" type="curve"/>
      <point x="310" y="360"/>
      <point x="323" y="318"/>
    </contour>
    <contour>
      <point x="84" y="298" type="curve"/>
      <point x="84" y="0" type="line"/>
      <point x="184" y="0" type="line"/>
      <point x="184" y="348" type="line" smooth="yes"/>
      <point x="184" y="377"/>
      <point x="137" y="446"/>
      <point x="85" y="457" type="curve"/>
      <point x="71" y="460" type="line"/>
      <point x="10" y="365" type="line"/>
      <point x="14" y="360" type="line"/>
      <point x="30" y="360" type="line" smooth="yes"/>
      <point x="57" y="360"/>
      <point x="84" y="323"/>
    </contour>
  </outline>
</glyph>
<glyph name="o" format="1">
  <advance width="486"/>
  <unicode hex="006F"/>
  <outline>
    <contour>
      <point x="346" y="206" type="curve"/>
      <point x="346" y="136"/>
      <point x="298" y="80"/>
      <point x="288" y="80" type="curve"/>
      <point x="188" y="80"/>
      <point x="140" y="169"/>
      <point x="140" y="259" type="curve"/>
      <point x="140" y="319"/>
      <point x="163" y="370"/>
      <point x="213" y="370" type="curve"/>
      <point x="293" y="370"/>
      <point x="346" y="286"/>
    </contour>
    <contour>
      <point x="265" y="460" type="curve"/>
      <point x="260" y="460" type="line"/>
      <point x="240" y="460"/>
      <point x="102" y="374"/>
      <point x="73" y="335" type="curve"/>
      <point x="51" y="292"/>
      <point x="40" y="259"/>
      <point x="40" y="189" type="curve"/>
      <point x="40" y="99"/>
      <point x="116" y="-10"/>
      <point x="216" y="-10" type="curve"/>
      <point x="221" y="-10" type="line"/>
      <point x="246" y="-10"/>
      <point x="377" y="78"/>
      <point x="411" y="118" type="curve"/>
      <point x="434" y="154"/>
      <point x="446" y="191"/>
      <point x="446" y="251" type="curve"/>
      <point x="446" y="351"/>
      <point x="375" y="460"/>
    </contour>
  </outline>
</glyph>
<glyph name="p" format="1">
  <advance width="544"/>
  <unicode hex="0070"/>
  <outline>
    <contour>
      <point x="98" y="308" type="curve"/>
      <point x="106" y="145"/>
      <point x="101" y="-17"/>
      <point x="93" y="-180" type="curve"/>
      <point x="200" y="-180" type="line"/>
      <point x="194" y="-7"/>
      <point x="192" y="165"/>
      <point x="198" y="338" type="curve"/>
      <point x="199" y="377"/>
      <point x="154" y="445"/>
      <point x="107" y="457" type="curve"/>
      <point x="95" y="460" type="line"/>
      <point x="10" y="365" type="line"/>
      <point x="12" y="360" type="line"/>
      <point x="26" y="360" type="line" smooth="yes"/>
      <point x="64" y="360"/>
      <point x="97" y="323"/>
    </contour>
    <contour>
      <point x="117" y="77" type="curve"/>
      <point x="152" y="77"/>
      <point x="245" y="25"/>
      <point x="290" y="-10" type="curve"/>
      <point x="295" y="-10" type="line"/>
      <point x="463" y="90" type="line"/>
      <point x="494" y="111"/>
      <point x="524" y="188"/>
      <point x="524" y="258" type="curve"/>
      <point x="524" y="378"/>
      <point x="443" y="445"/>
      <point x="353" y="460" type="curve"/>
      <point x="348" y="460" type="line"/>
      <point x="187" y="331" type="line"/>
      <point x="195" y="287" type="line"/>
      <point x="213" y="318"/>
      <point x="270" y="350"/>
      <point x="310" y="350" type="curve"/>
      <point x="370" y="350"/>
      <point x="424" y="298"/>
      <point x="424" y="218" type="curve"/>
      <point x="424" y="119"/>
      <point x="364" y="74"/>
      <point x="349" y="74" type="curve"/>
      <point x="339" y="74"/>
      <point x="199" y="166"/>
      <point x="152" y="166" type="curve"/>
      <point x="134" y="166"/>
      <point x="41" y="111"/>
      <point x="11" y="86" type="curve"/>
      <point x="5" y="81" type="line"/>
      <point x="22" y="53" type="line"/>
      <point x="29" y="56" type="line" smooth="yes"/>
      <point x="47" y="64"/>
      <point x="89" y="77"/>
    </contour>
  </outline>
</glyph>
<glyph name="q" format="1">
  <advance width="488"/>
  <unicode hex="0071"/>
  <outline>
    <contour>
      <point x="386" y="416" type="curve"/>
      <point x="420" y="470" type="line"/>
      <point x="432" y="470" type="line"/>
      <point x="426" y="253"/>
      <point x="432" y="37"/>
      <point x="438" y="-180" type="curve"/>
      <point x="331" y="-180" type="line"/>
      <point x="341" y="90" type="line"/>
      <point x="169" y="-10" type="line"/>
      <point x="164" y="-10" type="line"/>
      <point x="97" y="13"/>
      <point x="30" y="98"/>
      <point x="30" y="199" type="curve"/>
      <point x="30" y="258"/>
      <point x="51" y="335"/>
      <point x="76" y="351" type="curve"/>
      <point x="123" y="381"/>
      <point x="184" y="420"/>
      <point x="241" y="460" type="curve"/>
      <point x="246" y="460" type="line"/>
      <point x="292" y="453"/>
      <point x="342" y="437"/>
    </contour>
    <contour>
      <point x="332" y="142" type="curve"/>
      <point x="332" y="277" type="line" smooth="yes"/>
      <point x="332" y="334"/>
      <point x="226" y="360"/>
      <point x="171" y="360" type="curve"/>
      <point x="156" y="360"/>
      <point x="125" y="302"/>
      <point x="125" y="241" type="curve"/>
      <point x="125" y="161"/>
      <point x="155" y="90"/>
      <point x="237" y="90" type="curve"/>
      <point x="278" y="90"/>
      <point x="313" y="113"/>
    </contour>
  </outline>
</glyph>
<glyph name="r" format="1">
  <advance width="337"/>
  <unicode hex="0072"/>
  <outline>
    <contour>
      <point x="259" y="307" type="curve"/>
      <point x="263" y="307" type="line"/>
      <point x="294" y="331"/>
      <point x="316" y="361"/>
      <point x="337" y="392" type="curve"/>
      <point x="313" y="419"/>
      <point x="286" y="442"/>
      <point x="255" y="460" type="curve"/>
      <point x="255" y="460"/>
      <point x="253" y="460"/>
      <point x="253" y="460" type="curve"/>
      <point x="215" y="425"/>
      <point x="184" y="389"/>
      <point x="158" y="350" type="curve"/>
      <point x="166" y="307" type="line"/>
      <point x="191" y="359"/>
      <point x="215" y="356"/>
    </contour>
    <contour>
      <point x="77" y="0" type="line"/>
      <point x="177" y="0" type="line"/>
      <point x="177" y="374" type="line"/>
      <point x="77" y="310" type="line"/>
    </contour>
    <contour>
      <point x="77" y="310" type="curve"/>
      <point x="177" y="374" type="line"/>
      <point x="158" y="410"/>
      <point x="115" y="447"/>
      <point x="87" y="460" type="curve"/>
      <point x="82" y="460" type="line"/>
      <point x="20" y="365" type="line"/>
      <point x="24" y="360" type="line"/>
      <point x="42" y="360"/>
      <point x="73" y="329"/>
    </contour>
  </outline>
</glyph>
<glyph name="s" format="1">
  <advance width="421"/>
  <unicode hex="0073"/>
  <outline>
    <contour>
      <point x="117" y="139" type="curve"/>
      <point x="40" y="89" type="line"/>
      <point x="74" y="20"/>
      <point x="131" y="-10"/>
      <point x="191" y="-10" type="curve"/>
      <point x="301" y="-10"/>
      <point x="386" y="64"/>
      <point x="386" y="174" type="curve"/>
      <point x="386" y="244"/>
      <point x="334" y="289"/>
      <point x="293" y="299" type="curve"/>
      <point x="231" y="259" type="line" smooth="yes"/>
      <point x="199" y="238"/>
      <point x="144" y="275"/>
      <point x="144" y="325" type="curve"/>
      <point x="144" y="365"/>
      <point x="175" y="395"/>
      <point x="205" y="395" type="curve"/>
      <point x="237" y="395"/>
      <point x="272" y="366"/>
      <point x="289" y="325" type="curve"/>
      <point x="295" y="321" type="line"/>
      <point x="384" y="377" type="line"/>
      <point x="378" y="393"/>
      <point x="361" y="417"/>
      <point x="334" y="432" type="curve"/>
      <point x="312" y="444"/>
      <point x="281" y="460"/>
      <point x="243" y="460" type="curve"/>
      <point x="91" y="385" type="line"/>
      <point x="66" y="359"/>
      <point x="49" y="329"/>
      <point x="49" y="285" type="curve"/>
      <point x="49" y="233"/>
      <point x="83" y="183"/>
      <point x="120" y="165" type="curve"/>
      <point x="213" y="206" type="line"/>
      <point x="263" y="206"/>
      <point x="286" y="164"/>
      <point x="286" y="124" type="curve"/>
      <point x="286" y="64"/>
      <point x="251" y="40"/>
      <point x="234" y="40" type="curve"/>
      <point x="186" y="40"/>
      <point x="138" y="89"/>
    </contour>
  </outline>
</glyph>
<glyph name="t" format="1">
  <advance width="353"/>
  <unicode hex="0074"/>
  <outline>
    <contour>
      <point x="191" y="577" type="line"/>
      <point x="182" y="577" type="line"/>
      <point x="30" y="380" type="line"/>
      <point x="30" y="360" type="line"/>
      <point x="91" y="360" type="line"/>
      <point x="91" y="90" type="line" smooth="yes"/>
      <point x="91" y="50"/>
      <point x="139" y="-10"/>
      <point x="179" y="-10" type="curve"/>
      <point x="328" y="120" type="line"/>
      <point x="313" y="141" type="line"/>
      <point x="290" y="127"/>
      <point x="266" y="120"/>
      <point x="245" y="120" type="curve"/>
      <point x="214" y="120"/>
      <point x="191" y="140"/>
      <point x="191" y="187" type="curve"/>
      <point x="191" y="360" type="line"/>
      <point x="317" y="360" type="line"/>
      <point x="333" y="450" type="line"/>
      <point x="191" y="450" type="line"/>
    </contour>
  </outline>
</glyph>
<glyph name="u" format="1">
  <advance width="461"/>
  <unicode hex="0075"/>
  <outline>
    <contour>
      <point x="397" y="141" type="curve"/>
      <point x="397" y="457" type="line"/>
      <point x="394" y="460" type="line"/>
      <point x="297" y="404" type="line"/>
      <point x="297" y="123" type="line"/>
      <point x="284" y="100"/>
      <point x="256" y="90"/>
      <point x="239" y="90" type="curve"/>
      <point x="203" y="90"/>
      <point x="183" y="110"/>
      <point x="183" y="140" type="curve"/>
      <point x="183" y="363" type="line" smooth="yes"/>
      <point x="183" y="416"/>
      <point x="130" y="455"/>
      <point x="93" y="460" type="curve"/>
      <point x="88" y="460" type="line"/>
      <point x="20" y="375" type="line"/>
      <point x="30" y="360" type="line"/>
      <point x="48" y="360"/>
      <point x="79" y="329"/>
      <point x="83" y="310" type="curve"/>
      <point x="83" y="90" type="line" smooth="yes"/>
      <point x="83" y="50"/>
      <point x="120" y="-10"/>
      <point x="160" y="-10" type="curve"/>
      <point x="299" y="77" type="line"/>
      <point x="306" y="51"/>
      <point x="330" y="1"/>
      <point x="381" y="-10" type="curve"/>
      <point x="451" y="75" type="line"/>
      <point x="451" y="90" type="line"/>
      <point x="418" y="97"/>
      <point x="397" y="119"/>
    </contour>
  </outline>
</glyph>
<glyph name="v" format="1">
  <advance width="492"/>
  <unicode hex="0076"/>
  <outline>
    <contour>
      <point x="-10" y="366" type="line"/>
      <point x="-3" y="357" type="line"/>
      <point x="56" y="368"/>
      <point x="182" y="115"/>
      <point x="226" y="-10" type="curve"/>
      <point x="245" y="-10" type="line"/>
      <point x="335" y="84"/>
      <point x="472" y="219"/>
      <point x="472" y="350" type="curve"/>
      <point x="472" y="415"/>
      <point x="415" y="460"/>
      <point x="362" y="460" type="curve"/>
      <point x="345" y="460"/>
      <point x="329" y="456"/>
      <point x="316" y="445" type="curve"/>
      <point x="276" y="409"/>
      <point x="215" y="328"/>
      <point x="194" y="298" type="curve"/>
      <point x="168" y="349"/>
      <point x="125" y="419"/>
      <point x="87" y="461" type="curve"/>
    </contour>
    <contour>
      <point x="293" y="90" type="curve"/>
      <point x="217" y="243" type="line"/>
      <point x="200" y="277"/>
      <point x="256" y="345"/>
      <point x="305" y="345" type="curve"/>
      <point x="340" y="345"/>
      <point x="377" y="319"/>
      <point x="377" y="271" type="curve"/>
      <point x="377" y="229"/>
      <point x="352" y="155"/>
    </contour>
  </outline>
</glyph>
<glyph name="w" format="1">
  <advance width="777"/>
  <unicode hex="0077"/>
  <outline>
    <contour>
      <point x="-10" y="360" type="line"/>
      <point x="-10" y="343" type="line"/>
      <point x="52" y="343"/>
      <point x="82" y="335"/>
      <point x="92" y="316" type="curve"/>
      <point x="262" y="-10" type="line"/>
      <point x="295" y="-10" type="line"/>
      <point x="431" y="181" type="line"/>
      <point x="524" y="-10" type="line"/>
      <point x="543" y="-10" type="line"/>
      <point x="683" y="178"/>
      <point x="757" y="282"/>
      <point x="757" y="351" type="curve"/>
      <point x="757" y="414"/>
      <point x="705" y="460"/>
      <point x="643" y="460" type="curve"/>
      <point x="629" y="460"/>
      <point x="600" y="455"/>
      <point x="587" y="449" type="curve"/>
      <point x="581" y="446"/>
      <point x="520" y="359"/>
      <point x="486" y="312" type="curve"/>
      <point x="448" y="387"/>
      <point x="418" y="460"/>
      <point x="355" y="460" type="curve"/>
      <point x="308" y="460"/>
      <point x="260" y="400"/>
      <point x="205" y="340" type="curve"/>
      <point x="174" y="406" type="line" smooth="yes"/>
      <point x="166" y="423"/>
      <point x="114" y="460"/>
      <point x="58" y="460" type="curve"/>
    </contour>
    <contour>
      <point x="329" y="80" type="line"/>
      <point x="218" y="307" type="line"/>
      <point x="229" y="321"/>
      <point x="292" y="360"/>
      <point x="312" y="360" type="curve"/>
      <point x="328" y="360"/>
      <point x="367" y="321"/>
      <point x="414" y="220" type="curve"/>
      <point x="309" y="69" type="line"/>
    </contour>
    <contour>
      <point x="578" y="110" type="curve"/>
      <point x="501" y="276" type="line"/>
      <point x="537" y="323" type="line" smooth="yes"/>
      <point x="553" y="344"/>
      <point x="575" y="351"/>
      <point x="603" y="351" type="curve"/>
      <point x="639" y="351"/>
      <point x="674" y="319"/>
      <point x="674" y="283" type="curve"/>
      <point x="674" y="249"/>
      <point x="635" y="166"/>
    </contour>
  </outline>
</glyph>
<glyph name="x" format="1">
  <advance width="463"/>
  <unicode hex="0078"/>
  <outline>
    <contour>
      <point x="353" y="280" type="curve"/>
      <point x="453" y="356" type="line"/>
      <point x="453" y="360" type="line"/>
      <point x="432" y="405"/>
      <point x="403" y="435"/>
      <point x="359" y="460" type="curve"/>
      <point x="183" y="347" type="line"/>
      <point x="156" y="308"/>
      <point x="145" y="248"/>
      <point x="145" y="174" type="curve"/>
      <point x="145" y="94"/>
      <point x="235" y="-10"/>
      <point x="285" y="-10" type="curve"/>
      <point x="323" y="-10"/>
      <point x="409" y="75"/>
      <point x="443" y="118" type="curve"/>
      <point x="423" y="137" type="line"/>
      <point x="406" y="120"/>
      <point x="375" y="102"/>
      <point x="348" y="102" type="curve"/>
      <point x="287" y="102"/>
      <point x="245" y="144"/>
      <point x="245" y="244" type="curve"/>
      <point x="245" y="315"/>
      <point x="262" y="360"/>
      <point x="282" y="360" type="curve"/>
      <point x="301" y="360"/>
      <point x="342" y="308"/>
    </contour>
    <contour>
      <point x="6" y="358" type="line"/>
      <point x="23" y="340" type="line"/>
      <point x="41" y="353"/>
      <point x="56" y="360"/>
      <point x="79" y="360" type="curve"/>
      <point x="119" y="360"/>
      <point x="147" y="328"/>
      <point x="147" y="268" type="curve"/>
      <point x="147" y="141"/>
      <point x="73" y="37"/>
      <point x="0" y="-53" type="curve"/>
      <point x="30" y="-79" type="line"/>
      <point x="137" y="47"/>
      <point x="238" y="209"/>
      <point x="238" y="359" type="curve"/>
      <point x="238" y="385"/>
      <point x="181" y="461"/>
      <point x="117" y="461" type="curve"/>
    </contour>
  </outline>
</glyph>
<glyph name="y" format="1">
  <advance width="503"/>
  <unicode hex="0079"/>
  <outline>
    <contour>
      <point x="-10" y="376" type="line"/>
      <point x="64" y="460" type="line"/>
      <point x="86" y="454"/>
      <point x="108" y="437"/>
      <point x="124" y="413" type="curve"/>
      <point x="189" y="314"/>
      <point x="302" y="130"/>
      <point x="327" y="70" type="curve"/>
      <point x="376" y="142"/>
      <point x="409" y="230"/>
      <point x="401" y="285" type="curve"/>
      <point x="394" y="330"/>
      <point x="354" y="360"/>
      <point x="315" y="360" type="curve"/>
      <point x="270" y="360"/>
      <point x="223" y="274"/>
      <point x="216" y="249" type="curve"/>
      <point x="193" y="276" type="line"/>
      <point x="253" y="384"/>
      <point x="294" y="460"/>
      <point x="339" y="460" type="curve"/>
      <point x="409" y="460"/>
      <point x="483" y="410"/>
      <point x="483" y="343" type="curve"/>
      <point x="483" y="236"/>
      <point x="354" y="19"/>
      <point x="215" y="-180" type="curve"/>
      <point x="65" y="-180" type="line"/>
      <point x="65" y="-160" type="line"/>
      <point x="109" y="-145"/>
      <point x="205" y="-97"/>
      <point x="263" y="-10" type="curve"/>
      <point x="224" y="73"/>
      <point x="121" y="238"/>
      <point x="58" y="322" type="curve"/>
      <point x="37" y="350"/>
      <point x="1" y="367"/>
      <point x="-8" y="371" type="curve"/>
    </contour>
  </outline>
</glyph>
<glyph name="z" format="1">
  <advance width="451"/>
  <unicode hex="007A"/>
  <outline>
    <contour>
      <point x="14" y="13" type="curve"/>
      <point x="91" y="50" type="line"/>
      <point x="186" y="186"/>
      <point x="328" y="307"/>
      <point x="418" y="436" type="curve"/>
      <point x="312" y="384" type="line"/>
      <point x="239" y="267"/>
      <point x="93" y="139"/>
    </contour>
    <contour>
      <point x="14" y="13" type="line"/>
      <point x="36" y="-10" type="line"/>
      <point x="89" y="38"/>
      <point x="203" y="-10"/>
      <point x="316" y="-10" type="curve"/>
      <point x="336" y="-10"/>
      <point x="399" y="63"/>
      <point x="441" y="125" type="curve"/>
      <point x="417" y="139" type="line"/>
      <point x="388" y="104"/>
      <point x="365" y="90"/>
      <point x="305" y="90" type="curve"/>
      <point x="285" y="90"/>
      <point x="159" y="118"/>
      <point x="130" y="118" type="curve"/>
    </contour>
    <contour>
      <point x="287" y="340" type="curve"/>
      <point x="418" y="436" type="line"/>
      <point x="391" y="460" type="line"/>
      <point x="331" y="420"/>
      <point x="233" y="460"/>
      <point x="132" y="460" type="curve"/>
      <point x="112" y="460"/>
      <point x="67" y="415"/>
      <point x="10" y="353" type="curve"/>
      <point x="34" y="336" type="line"/>
      <point x="53" y="355"/>
      <point x="83" y="360"/>
      <point x="103" y="360" type="curve"/>
      <point x="153" y="360"/>
      <point x="220" y="340"/>
    </contour>
  </outline>
</glyph>
<glyph name="AE" format="1">
  <advance width="851"/>
  <unicode hex="00C6"/>
  <outline>
    <contour>
      <point x="222" y="191" type="curve"/>
      <point x="500" y="635" type="line"/>
      <point x="459" y="667" type="line"/>
      <point x="10" y="10" type="line"/>
      <point x="15" y="0" type="line"/>
      <point x="202" y="0" type="line"/>
      <point x="202" y="20" type="line"/>
      <point x="193" y="25" type="line" smooth="yes"/>
      <point x="162" y="42"/>
      <point x="156" y="60"/>
      <point x="156" y="71" type="curve"/>
      <point x="156" y="85"/>
      <point x="193" y="145"/>
    </contour>
    <contour>
      <point x="811" y="700" type="line"/>
      <point x="561" y="700" type="line"/>
      <point x="561" y="640" type="line"/>
      <point x="751" y="640" type="line" smooth="yes"/>
      <point x="781" y="640"/>
      <point x="789" y="620"/>
      <point x="801" y="580" type="curve"/>
      <point x="811" y="580" type="line"/>
    </contour>
    <contour>
      <point x="285" y="369" type="line"/>
      <point x="285" y="309" type="line"/>
      <point x="724" y="309" type="line" smooth="yes"/>
      <point x="764" y="309"/>
      <point x="777" y="286"/>
      <point x="790" y="265" type="curve"/>
      <point x="808" y="265" type="line"/>
      <point x="808" y="422" type="line"/>
      <point x="790" y="422" type="line"/>
      <point x="782" y="404"/>
      <point x="766" y="369"/>
      <point x="746" y="369" type="curve"/>
    </contour>
    <contour>
      <point x="713" y="65" type="curve"/>
      <point x="571" y="65" type="line"/>
      <point x="571" y="0" type="line"/>
      <point x="751" y="0" type="line" smooth="yes"/>
      <point x="781" y="0"/>
      <point x="788" y="-16"/>
      <point x="801" y="-60" type="curve"/>
      <point x="811" y="-60" type="line"/>
      <point x="811" y="141" type="line"/>
      <point x="801" y="141" type="line"/>
      <point x="777" y="97"/>
      <point x="753" y="65"/>
    </contour>
    <contour>
      <point x="461" y="560" type="curve"/>
      <point x="466" y="406"/>
      <point x="467" y="253"/>
      <point x="461" y="110" type="curve"/>
      <point x="459" y="60"/>
      <point x="436" y="43"/>
      <point x="411" y="20" type="curve"/>
      <point x="411" y="0" type="line"/>
      <point x="461" y="0" type="line"/>
      <point x="571" y="0" type="line"/>
      <point x="636" y="0" type="line"/>
      <point x="571" y="20" type="line"/>
      <point x="571" y="110" type="line"/>
      <point x="566" y="307"/>
      <point x="566" y="503"/>
      <point x="571" y="700" type="curve"/>
      <point x="426" y="700" type="line"/>
      <point x="426" y="690" type="line"/>
      <point x="441" y="660"/>
      <point x="459" y="620"/>
    </contour>
  </outline>
</glyph>
<glyph name="Egrave" format="1">
  <advance width="480"/>
  <unicode hex="00C8"/>
  <outline>
    <contour>
      <point x="227" y="889" type="line"/>
      <point x="393" y="766" type="line"/>
      <point x="392" y="764" type="line"/>
      <point x="357" y="746" type="line"/>
      <point x="161" y="851" type="line"/>
      <point x="160" y="866" type="line"/>
    </contour>
    <component base="E"/>
  </outline>
</glyph>
<glyph name="agrave" format="1">
  <advance width="417"/>
  <unicode hex="00E0"/>
  <outline>
    <contour>
      <point x="336" y="499" type="line"/>
      <point x="263" y="499" type="line"/>
      <point x="61" y="657" type="line"/>
      <point x="67" y="670" type="line"/>
      <point x="160" y="670" type="line"/>
      <point x="340" y="505" type="line"/>
    </contour>
    <component base="a"/>
  </outline>
</glyph>
<glyph name="ccedilla" format="1">
  <advance width="343"/>
  <unicode hex="00E7"/>
  <outline>
    <contour>
      <point x="139" y="-155" type="curve"/>
      <point x="151" y="-181" type="line"/>
      <point x="334" y="-97"/>
      <point x="349" y="30"/>
      <point x="302" y="96" type="curve"/>
      <point x="277" y="81"/>
      <point x="238" y="58"/>
      <point x="210" y="58" type="curve"/>
      <point x="180" y="58"/>
      <point x="118" y="94"/>
      <point x="118" y="144" type="curve"/>
      <point x="118" y="373" type="line"/>
      <point x="219" y="308" type="line"/>
      <point x="314" y="377" type="line"/>
      <point x="314" y="385" type="line"/>
      <point x="195" y="460" type="line"/>
      <point x="137" y="438"/>
      <point x="51" y="380"/>
      <point x="38" y="333" type="curve"/>
      <point x="26" y="291"/>
      <point x="27" y="195"/>
      <point x="30" y="113" type="curve"/>
      <point x="33" y="33"/>
      <point x="88" y="-10"/>
      <point x="148" y="-10" type="curve"/>
      <point x="217" y="14" type="line"/>
      <point x="228" y="-3"/>
      <point x="241" y="-27"/>
      <point x="241" y="-45" type="curve"/>
      <point x="241" y="-80"/>
      <point x="221" y="-110"/>
    </contour>
  </outline>
</glyph>
<glyph name="eacute" format="1">
  <advance width="384"/>
  <unicode hex="00E9"/>
  <outline>
    <contour>
      <point x="296" y="647" type="line"/>
      <point x="94" y="449" type="line"/>
      <point x="71" y="468" type="line"/>
      <point x="184" y="642" type="line"/>
      <point x="290" y="660" type="line"/>
    </contour>
    <component base="e"/>
  </outline>
</glyph>
<glyph name="ugrave" format="1">
  <advance width="463"/>
  <unicode hex="00F9"/>
  <outline>
    <contour>
      <point x="398" y="549" type="line"/>
      <point x="325" y="549" type="line"/>
      <point x="98" y="704" type="line"/>
      <point x="99" y="710" type="line"/>
      <point x="212" y="710" type="line"/>
      <point x="402" y="555" type="line"/>
    </contour>
    <contour>
      <point x="399" y="141" type="curve"/>
      <point x="399" y="457" type="line"/>
      <point x="396" y="460" type="line"/>
      <point x="299" y="404" type="line"/>
      <point x="299" y="123" type="line"/>
      <point x="286" y="100"/>
      <point x="258" y="90"/>
      <point x="241" y="90" type="curve"/>
      <point x="205" y="90"/>
      <point x="161" y="110"/>
      <point x="161" y="190" type="curve"/>
      <point x="161" y="246"/>
      <point x="162" y="351"/>
      <point x="171" y="457" type="curve"/>
      <point x="168" y="460" type="line"/>
      <point x="71" y="404" type="line"/>
      <point x="59" y="299"/>
      <point x="58" y="195"/>
      <point x="60" y="130" type="curve"/>
      <point x="62" y="50"/>
      <point x="122" y="-10"/>
      <point x="162" y="-10" type="curve"/>
      <point x="301" y="77" type="line"/>
      <point x="308" y="51"/>
      <point x="332" y="1"/>
      <point x="383" y="-10" type="curve"/>
      <point x="453" y="75" type="line"/>
      <point x="453" y="90" type="line"/>
      <point x="420" y="97"/>
      <point x="399" y="119"/>
    </contour>
  </outline>
</glyph>
<glyph name="c_h" format="1">
  <advance width="746"/>
  <outline>
    <contour>
      <point x="154" y="329" type="curve"/>
      <point x="248" y="270" type="line"/>
      <point x="352" y="342" type="line"/>
      <point x="352" y="346" type="line"/>
      <point x="210" y="406" type="line"/>
      <point x="74" y="306" type="line"/>
      <point x="56" y="272"/>
      <point x="50" y="236"/>
      <point x="50" y="171" type="curve"/>
      <point x="50" y="91"/>
      <point x="86" y="-20"/>
      <point x="166" y="-20" type="curve"/>
      <point x="183" y="-20"/>
      <point x="288" y="53"/>
      <point x="345" y="91" type="curve"/>
      <point x="333" y="115" type="line"/>
      <point x="311" y="102"/>
      <point x="260" y="69"/>
      <point x="225" y="69" type="curve"/>
      <point x="154" y="68"/>
      <point x="139" y="135"/>
      <point x="139" y="215" type="curve"/>
      <point x="139" y="278"/>
      <point x="144" y="312"/>
    </contour>
    <contour>
      <point x="533" y="420" type="curve"/>
      <point x="427" y="310" type="line"/>
      <point x="427" y="426"/>
      <point x="427" y="592"/>
      <point x="437" y="708" type="curve"/>
      <point x="429" y="710" type="line"/>
      <point x="411" y="702" type="line" smooth="yes"/>
      <point x="391" y="693"/>
      <point x="373" y="686"/>
      <point x="356" y="686" type="curve"/>
      <point x="286" y="686"/>
      <point x="255" y="702"/>
      <point x="183" y="688" type="curve"/>
      <point x="129" y="603" type="line"/>
      <point x="140" y="592" type="line"/>
      <point x="172" y="605"/>
      <point x="223" y="605"/>
      <point x="258" y="605" type="curve"/>
      <point x="282" y="605"/>
      <point x="302" y="602"/>
      <point x="320" y="596" type="curve"/>
      <point x="326" y="469"/>
      <point x="328" y="240"/>
      <point x="328" y="50" type="curve"/>
      <point x="328" y="40"/>
      <point x="323" y="17"/>
      <point x="317" y="0" type="curve"/>
      <point x="437" y="0" type="line"/>
      <point x="431" y="15"/>
      <point x="427" y="40"/>
      <point x="427" y="50" type="curve"/>
      <point x="427" y="258" type="line"/>
      <point x="459" y="286"/>
      <point x="490" y="292"/>
      <point x="511" y="292" type="curve"/>
      <point x="571" y="292"/>
      <point x="646" y="220"/>
      <point x="646" y="110" type="curve"/>
      <point x="646" y="54"/>
      <point x="638" y="18"/>
      <point x="618" y="-8" type="curve"/>
      <point x="542" y="0" type="line"/>
      <point x="472" y="-84" type="line"/>
      <point x="472" y="-92" type="line"/>
      <point x="485" y="-93"/>
      <point x="563" y="-79"/>
      <point x="583" y="-69" type="curve"/>
      <point x="651" y="-35"/>
      <point x="726" y="73"/>
      <point x="726" y="173" type="curve"/>
      <point x="726" y="273"/>
      <point x="667" y="384"/>
    </contour>
  </outline>
</glyph>
<glyph name="c_k" format="1">
  <advance width="632"/>
  <outline>
    <contour>
      <point x="328" y="341" type="line"/>
      <point x="252" y="289" type="line"/>
      <point x="166" y="335" type="line"/>
      <point x="150" y="346"/>
      <point x="141" y="285"/>
      <point x="141" y="221" type="curve"/>
      <point x="141" y="139"/>
      <point x="161" y="100"/>
      <point x="204" y="100" type="curve"/>
      <point x="246" y="100"/>
      <point x="282" y="121"/>
      <point x="304" y="139" type="curve"/>
      <point x="319" y="116" type="line"/>
      <point x="154" y="-10" type="line"/>
      <point x="110" y="-10"/>
      <point x="50" y="54"/>
      <point x="50" y="165" type="curve"/>
      <point x="50" y="212"/>
      <point x="55" y="253"/>
      <point x="65" y="294" type="curve"/>
      <point x="207" y="416" type="line"/>
      <point x="328" y="344" type="line"/>
    </contour>
    <contour>
      <point x="376" y="152" type="line"/>
      <point x="376" y="334" type="line"/>
      <point x="465" y="414" type="line" smooth="yes"/>
      <point x="493" y="439"/>
      <point x="509" y="437"/>
      <point x="527" y="411" type="curve"/>
      <point x="542" y="391" type="line" smooth="yes"/>
      <point x="573" y="348"/>
      <point x="570" y="311"/>
      <point x="538" y="285" type="curve"/>
    </contour>
    <contour>
      <point x="386" y="320" type="curve"/>
      <point x="386" y="198" type="line"/>
      <point x="428" y="223"/>
      <point x="481" y="274"/>
      <point x="481" y="294" type="curve"/>
      <point x="481" y="314"/>
      <point x="447" y="345"/>
      <point x="441" y="345" type="curve"/>
      <point x="435" y="345"/>
      <point x="400" y="331"/>
    </contour>
    <contour>
      <point x="545" y="-18" type="line"/>
      <point x="410" y="195" type="line"/>
      <point x="475" y="238" type="line"/>
      <point x="530" y="147"/>
      <point x="582" y="88"/>
      <point x="632" y="57" type="curve"/>
      <point x="632" y="52" type="line"/>
    </contour>
    <contour>
      <point x="392" y="310" type="curve"/>
      <point x="392" y="50" type="line" smooth="yes"/>
      <point x="392" y="40"/>
      <point x="396" y="15"/>
      <point x="402" y="0" type="curve"/>
      <point x="282" y="0" type="line"/>
      <point x="288" y="17"/>
      <point x="293" y="40"/>
      <point x="293" y="50" type="curve"/>
      <point x="293" y="240"/>
      <point x="291" y="469"/>
      <point x="285" y="596" type="curve"/>
      <point x="267" y="602"/>
      <point x="247" y="605"/>
      <point x="223" y="605" type="curve"/>
      <point x="208" y="605"/>
      <point x="157" y="605"/>
      <point x="125" y="592" type="curve"/>
      <point x="114" y="603" type="line"/>
      <point x="168" y="688" type="line"/>
      <point x="240" y="695"/>
      <point x="251" y="686"/>
      <point x="321" y="686" type="curve"/>
      <point x="338" y="686"/>
      <point x="356" y="693"/>
      <point x="376" y="702" type="curve"/>
      <point x="394" y="710" type="line"/>
      <point x="402" y="708" type="line"/>
      <point x="392" y="592"/>
      <point x="392" y="426"/>
    </contour>
  </outline>
</glyph>
<glyph name="eins_mensch" format="1">
  <advance width="1195"/>
  <outline>
    <contour>
      <point x="1088" y="0" type="line"/>
      <point x="322" y="-6" type="line"/>
      <point x="132" y="-8"/>
      <point x="253" y="-5"/>
      <point x="85" y="-10" type="curve"/>
      <point x="79" y="-10"/>
      <point x="50" y="-6"/>
      <point x="50" y="22" type="curve"/>
      <point x="50" y="44"/>
      <point x="55" y="57"/>
      <point x="72" y="62" type="curve"/>
      <point x="88" y="66" type="line"/>
      <point x="103" y="79"/>
      <point x="163" y="143"/>
      <point x="200" y="168" type="curve"/>
      <point x="245" y="181"/>
      <point x="278" y="207"/>
      <point x="311" y="250" type="curve"/>
      <point x="329" y="260"/>
      <point x="346" y="272"/>
      <point x="369" y="283" type="curve"/>
      <point x="396" y="329" type="line"/>
      <point x="419" y="335"/>
      <point x="431" y="352"/>
      <point x="439" y="360" type="curve"/>
      <point x="446" y="366"/>
      <point x="494" y="397"/>
      <point x="498" y="413" type="curve"/>
      <point x="507" y="438"/>
      <point x="540" y="476"/>
      <point x="550" y="486" type="curve"/>
      <point x="558" y="494"/>
      <point x="560" y="498"/>
      <point x="560" y="508" type="curve"/>
      <point x="560" y="519"/>
      <point x="558" y="508"/>
      <point x="587" y="523" type="curve"/>
      <point x="589" y="525"/>
      <point x="586" y="525"/>
      <point x="586" y="525" type="curve"/>
      <point x="585" y="524" type="line"/>
      <point x="560" y="517" type="line"/>
      <point x="526" y="504"/>
      <point x="485" y="495"/>
      <point x="442" y="490" type="curve"/>
      <point x="352" y="450"/>
      <point x="308" y="467"/>
      <point x="266" y="448" type="curve"/>
      <point x="242" y="439"/>
      <point x="254" y="422"/>
      <point x="210" y="410" type="curve"/>
      <point x="197" y="406"/>
      <point x="186" y="409"/>
      <point x="188" y="419" type="curve"/>
      <point x="199" y="456" type="line"/>
      <point x="207" y="477"/>
      <point x="206" y="476"/>
      <point x="215" y="482" type="curve"/>
      <point x="239" y="498"/>
      <point x="279" y="495"/>
      <point x="327" y="510" type="curve"/>
      <point x="349" y="517"/>
      <point x="459" y="548"/>
      <point x="471" y="550" type="curve"/>
      <point x="483" y="553"/>
      <point x="559" y="588"/>
      <point x="568" y="591" type="curve"/>
      <point x="574" y="593"/>
      <point x="576" y="598"/>
      <point x="607" y="598" type="curve"/>
      <point x="614" y="598"/>
      <point x="622" y="599"/>
      <point x="632" y="598" type="curve"/>
      <point x="639" y="598"/>
      <point x="650" y="598"/>
      <point x="656" y="598" type="curve"/>
      <point x="682" y="596"/>
      <point x="691" y="614"/>
      <point x="691" y="629" type="curve"/>
      <point x="691" y="642"/>
      <point x="682" y="643"/>
      <point x="671" y="660" type="curve"/>
      <point x="667" y="670"/>
      <point x="669" y="683"/>
      <point x="678" y="693" type="curve"/>
      <point x="686" y="703"/>
      <point x="701" y="710"/>
      <point x="719" y="710" type="curve"/>
      <point x="739" y="711"/>
      <point x="751" y="709"/>
      <point x="763" y="692" type="curve"/>
      <point x="766" y="688"/>
      <point x="763" y="688"/>
      <point x="763" y="684" type="curve"/>
      <point x="763" y="682"/>
      <point x="778" y="670"/>
      <point x="780" y="666" type="curve"/>
      <point x="783" y="661"/>
      <point x="779" y="660"/>
      <point x="779" y="654" type="curve"/>
      <point x="779" y="650"/>
      <point x="787" y="642"/>
      <point x="788" y="636" type="curve"/>
      <point x="790" y="626"/>
      <point x="781" y="628"/>
      <point x="770" y="622" type="curve"/>
      <point x="764" y="619"/>
      <point x="760" y="617"/>
      <point x="758" y="613" type="curve"/>
      <point x="757" y="610"/>
      <point x="759" y="604"/>
      <point x="762" y="602" type="curve"/>
      <point x="773" y="597"/>
      <point x="813" y="603"/>
      <point x="828" y="606" type="curve"/>
      <point x="844" y="608"/>
      <point x="872" y="613"/>
      <point x="932" y="615" type="curve"/>
      <point x="955" y="616"/>
      <point x="971" y="625"/>
      <point x="1001" y="626" type="curve"/>
      <point x="1041" y="626"/>
      <point x="1093" y="628"/>
      <point x="1101" y="623" type="curve"/>
      <point x="1114" y="617"/>
      <point x="1146" y="591"/>
      <point x="1145" y="580" type="curve"/>
      <point x="1145" y="575"/>
      <point x="1141" y="570"/>
      <point x="1136" y="570" type="curve"/>
      <point x="1094" y="570"/>
      <point x="1094" y="589"/>
      <point x="1055" y="589" type="curve"/>
      <point x="1047" y="589"/>
      <point x="1031" y="587"/>
      <point x="1018" y="583" type="curve"/>
      <point x="962" y="564"/>
      <point x="891" y="552"/>
      <point x="869" y="549" type="curve"/>
      <point x="843" y="546"/>
      <point x="819" y="531"/>
      <point x="810" y="525" type="curve"/>
      <point x="799" y="518"/>
      <point x="792" y="502"/>
      <point x="790" y="491" type="curve"/>
      <point x="783" y="476"/>
      <point x="760" y="469"/>
      <point x="755" y="457" type="curve"/>
      <point x="753" y="453"/>
      <point x="748" y="454"/>
      <point x="743" y="452" type="curve"/>
      <point x="735" y="450"/>
      <point x="731" y="436"/>
      <point x="725" y="426" type="curve"/>
      <point x="723" y="422"/>
      <point x="714" y="419"/>
      <point x="699" y="407" type="curve"/>
      <point x="696" y="405"/>
      <point x="691" y="397"/>
      <point x="689" y="392" type="curve"/>
      <point x="686" y="387"/>
      <point x="668" y="372"/>
      <point x="657" y="374" type="curve"/>
      <point x="626" y="376"/>
      <point x="604" y="373"/>
      <point x="585" y="362" type="curve"/>
      <point x="582" y="361"/>
      <point x="561" y="357"/>
      <point x="557" y="352" type="curve"/>
      <point x="539" y="340"/>
      <point x="519" y="343"/>
      <point x="495" y="333" type="curve"/>
      <point x="474" y="324"/>
      <point x="455" y="318"/>
      <point x="447" y="314" type="curve"/>
      <point x="441" y="311"/>
      <point x="452" y="311"/>
      <point x="461" y="314" type="curve"/>
      <point x="479" y="321"/>
      <point x="502" y="331"/>
      <point x="508" y="331" type="curve"/>
      <point x="522" y="331"/>
      <point x="550" y="342"/>
      <point x="557" y="346" type="curve"/>
      <point x="570" y="352"/>
      <point x="599" y="364"/>
      <point x="609" y="366" type="curve"/>
      <point x="620" y="370"/>
      <point x="643" y="370"/>
      <point x="651" y="370" type="curve"/>
      <point x="670" y="370"/>
      <point x="720" y="346"/>
      <point x="726" y="342" type="curve"/>
      <point x="731" y="337"/>
      <point x="774" y="325"/>
      <point x="779" y="324" type="curve"/>
      <point x="794" y="318"/>
      <point x="831" y="297"/>
      <point x="852" y="282" type="curve"/>
      <point x="860" y="277"/>
      <point x="864" y="277"/>
      <point x="871" y="273" type="curve"/>
      <point x="881" y="267"/>
      <point x="890" y="255"/>
      <point x="892" y="251" type="curve"/>
      <point x="902" y="229"/>
      <point x="921" y="211"/>
      <point x="931" y="190" type="curve"/>
      <point x="937" y="177"/>
      <point x="947" y="165"/>
      <point x="954" y="152" type="curve"/>
      <point x="976" y="111"/>
      <point x="996" y="85"/>
      <point x="1019" y="57" type="curve"/>
      <point x="1045" y="26"/>
      <point x="1082" y="19"/>
      <point x="1097" y="15" type="curve"/>
    </contour>
    <contour>
      <point x="969" y="24" type="curve"/>
      <point x="963" y="24"/>
      <point x="960" y="26"/>
      <point x="960" y="22" type="curve"/>
      <point x="961" y="14"/>
      <point x="964" y="19"/>
      <point x="982" y="16" type="curve"/>
      <point x="986" y="15"/>
      <point x="986" y="26"/>
      <point x="985" y="34" type="curve"/>
      <point x="983" y="45"/>
      <point x="984" y="42"/>
      <point x="979" y="48" type="curve"/>
      <point x="978" y="50"/>
      <point x="978" y="53"/>
      <point x="977" y="55" type="curve"/>
      <point x="974" y="64"/>
      <point x="937" y="114"/>
      <point x="930" y="118" type="curve"/>
      <point x="922" y="122"/>
      <point x="919" y="136"/>
      <point x="915" y="135" type="curve"/>
      <point x="910" y="134" type="line" smooth="yes"/>
      <point x="905" y="133"/>
      <point x="922" y="122"/>
      <point x="934" y="108" type="curve"/>
      <point x="951" y="89"/>
      <point x="969" y="66"/>
      <point x="970" y="60" type="curve"/>
      <point x="972" y="53"/>
      <point x="983" y="48"/>
      <point x="968" y="48" type="curve"/>
      <point x="965" y="48"/>
      <point x="958" y="42"/>
      <point x="958" y="48" type="curve"/>
      <point x="958" y="75"/>
      <point x="908" y="123"/>
      <point x="898" y="130" type="curve"/>
      <point x="888" y="137"/>
      <point x="861" y="163"/>
      <point x="849" y="174" type="curve"/>
      <point x="839" y="184"/>
      <point x="816" y="222"/>
      <point x="811" y="227" type="curve"/>
      <point x="808" y="230"/>
      <point x="773" y="233"/>
      <point x="763" y="236" type="curve"/>
      <point x="748" y="241"/>
      <point x="707" y="254"/>
      <point x="668" y="265" type="curve"/>
      <point x="647" y="270"/>
      <point x="629" y="273"/>
      <point x="620" y="275" type="curve"/>
      <point x="610" y="276"/>
      <point x="602" y="277"/>
      <point x="596" y="277" type="curve"/>
      <point x="580" y="277"/>
      <point x="565" y="276"/>
      <point x="552" y="274" type="curve"/>
      <point x="538" y="274"/>
      <point x="502" y="250"/>
      <point x="485" y="239" type="curve"/>
      <point x="476" y="236"/>
      <point x="366" y="169"/>
      <point x="338" y="150" type="curve"/>
      <point x="322" y="140"/>
      <point x="344" y="152"/>
      <point x="270" y="121" type="curve"/>
      <point x="245" y="111"/>
      <point x="221" y="102"/>
      <point x="216" y="97" type="curve"/>
      <point x="204" y="87"/>
      <point x="171" y="66"/>
      <point x="170" y="66" type="curve"/>
      <point x="161" y="61"/>
      <point x="151" y="56"/>
      <point x="155" y="45" type="curve"/>
      <point x="157" y="41"/>
      <point x="178" y="38"/>
      <point x="201" y="38" type="curve"/>
      <point x="225" y="38"/>
      <point x="287" y="47"/>
      <point x="360" y="47" type="curve"/>
      <point x="387" y="47"/>
      <point x="411" y="46"/>
      <point x="427" y="42" type="curve"/>
      <point x="441" y="38"/>
      <point x="461" y="39"/>
      <point x="484" y="39" type="curve"/>
      <point x="501" y="39"/>
      <point x="520" y="37"/>
      <point x="537" y="38" type="curve"/>
      <point x="553" y="38"/>
      <point x="570" y="39"/>
      <point x="583" y="39" type="curve"/>
      <point x="597" y="39"/>
      <point x="611" y="40"/>
      <point x="615" y="38" type="curve"/>
      <point x="656" y="32"/>
      <point x="666" y="29"/>
      <point x="703" y="29" type="curve"/>
      <point x="717" y="29"/>
      <point x="744" y="30"/>
      <point x="776" y="31" type="curve"/>
      <point x="842" y="33"/>
      <point x="927" y="37"/>
      <point x="963" y="33" type="curve"/>
      <point x="986" y="28"/>
      <point x="969" y="24"/>
    </contour>
    <contour>
      <point x="265" y="125" type="curve"/>
      <point x="278" y="129"/>
      <point x="320" y="150"/>
      <point x="307" y="147" type="curve"/>
      <point x="296" y="144"/>
      <point x="283" y="136"/>
      <point x="279" y="134" type="curve"/>
      <point x="273" y="133"/>
      <point x="248" y="125"/>
      <point x="244" y="121" type="curve"/>
      <point x="239" y="119"/>
      <point x="228" y="112"/>
      <point x="220" y="111" type="curve"/>
      <point x="214" y="108"/>
      <point x="201" y="101"/>
      <point x="197" y="97" type="curve"/>
      <point x="193" y="93"/>
      <point x="140" y="59"/>
      <point x="143" y="55" type="curve"/>
      <point x="143" y="55"/>
      <point x="151" y="59"/>
      <point x="153" y="61" type="curve"/>
      <point x="156" y="63"/>
      <point x="202" y="97"/>
      <point x="206" y="100" type="curve"/>
      <point x="213" y="104"/>
      <point x="259" y="124"/>
    </contour>
    <contour>
      <point x="769" y="255" type="curve"/>
      <point x="766" y="255"/>
      <point x="765" y="253"/>
      <point x="765" y="253" type="curve"/>
      <point x="769" y="250"/>
      <point x="779" y="253"/>
      <point x="783" y="250" type="curve"/>
      <point x="788" y="248"/>
      <point x="795" y="247"/>
      <point x="802" y="245" type="curve"/>
      <point x="811" y="243"/>
      <point x="818" y="239"/>
      <point x="820" y="238" type="curve"/>
      <point x="821" y="236"/>
      <point x="845" y="233"/>
      <point x="851" y="233" type="curve"/>
      <point x="852" y="233"/>
      <point x="853" y="234"/>
      <point x="853" y="234" type="curve"/>
      <point x="855" y="235"/>
      <point x="862" y="246"/>
      <point x="867" y="246" type="curve"/>
      <point x="870" y="246"/>
      <point x="872" y="246"/>
      <point x="874" y="246" type="curve"/>
      <point x="877" y="246"/>
      <point x="878" y="246"/>
      <point x="877" y="248" type="curve"/>
      <point x="874" y="250"/>
      <point x="870" y="251"/>
      <point x="867" y="253" type="curve"/>
      <point x="865" y="254"/>
      <point x="864" y="255"/>
      <point x="863" y="255" type="curve"/>
      <point x="863" y="255"/>
      <point x="862" y="255"/>
      <point x="861" y="253" type="curve"/>
      <point x="859" y="249"/>
      <point x="854" y="246"/>
      <point x="854" y="244" type="curve"/>
      <point x="854" y="243"/>
      <point x="845" y="242"/>
      <point x="839" y="242" type="curve"/>
      <point x="837" y="242"/>
      <point x="835" y="242"/>
      <point x="834" y="242" type="curve"/>
      <point x="830" y="244"/>
      <point x="809" y="246"/>
      <point x="802" y="249" type="curve"/>
      <point x="797" y="251"/>
      <point x="786" y="251"/>
      <point x="785" y="253" type="curve"/>
      <point x="784" y="255"/>
      <point x="771" y="255"/>
    </contour>
    <contour>
      <point x="674" y="339" type="curve"/>
      <point x="653" y="339"/>
      <point x="627" y="330"/>
      <point x="621" y="329" type="curve"/>
      <point x="616" y="328"/>
      <point x="590" y="309"/>
      <point x="588" y="307" type="curve"/>
      <point x="587" y="305"/>
      <point x="573" y="300"/>
      <point x="571" y="300" type="curve"/>
      <point x="569" y="299"/>
      <point x="560" y="289"/>
      <point x="552" y="288" type="curve"/>
      <point x="545" y="287"/>
      <point x="548" y="283"/>
      <point x="552" y="285" type="curve"/>
      <point x="557" y="287" type="line"/>
      <point x="559" y="288"/>
      <point x="571" y="295"/>
      <point x="574" y="297" type="curve"/>
      <point x="579" y="299"/>
      <point x="590" y="301"/>
      <point x="595" y="304" type="curve"/>
      <point x="599" y="306"/>
      <point x="609" y="315"/>
      <point x="619" y="319" type="curve"/>
      <point x="629" y="326"/>
      <point x="642" y="328"/>
      <point x="652" y="331" type="curve"/>
      <point x="656" y="333"/>
      <point x="663" y="334"/>
      <point x="670" y="334" type="curve"/>
      <point x="673" y="334"/>
      <point x="677" y="333"/>
      <point x="681" y="333" type="curve"/>
      <point x="684" y="333"/>
      <point x="687" y="333"/>
      <point x="690" y="333" type="curve"/>
      <point x="692" y="333"/>
      <point x="694" y="333"/>
      <point x="696" y="333" type="curve"/>
      <point x="701" y="334"/>
      <point x="702" y="336"/>
      <point x="677" y="339" type="curve"/>
      <point x="676" y="339"/>
      <point x="675" y="339"/>
    </contour>
    <contour>
      <point x="401" y="312" type="curve"/>
      <point x="411" y="313"/>
      <point x="390" y="307"/>
      <point x="399" y="307" type="curve"/>
      <point x="402" y="307"/>
      <point x="404" y="308"/>
      <point x="406" y="311" type="curve"/>
      <point x="408" y="314"/>
      <point x="417" y="316"/>
      <point x="420" y="318" type="curve"/>
      <point x="423" y="321"/>
      <point x="438" y="331"/>
      <point x="442" y="335" type="curve"/>
      <point x="447" y="340"/>
      <point x="466" y="345"/>
      <point x="468" y="346" type="curve"/>
      <point x="470" y="347"/>
      <point x="484" y="347"/>
      <point x="486" y="347" type="curve"/>
      <point x="489" y="347"/>
      <point x="497" y="351"/>
      <point x="500" y="351" type="curve"/>
      <point x="503" y="351"/>
      <point x="532" y="359"/>
      <point x="536" y="360" type="curve"/>
      <point x="540" y="361"/>
      <point x="588" y="385"/>
      <point x="595" y="389" type="curve"/>
      <point x="602" y="393"/>
      <point x="612" y="398"/>
      <point x="624" y="409" type="curve"/>
      <point x="636" y="420"/>
      <point x="675" y="444"/>
      <point x="679" y="446" type="curve"/>
      <point x="683" y="448"/>
      <point x="711" y="454"/>
      <point x="719" y="456" type="curve"/>
      <point x="725" y="458"/>
      <point x="743" y="470"/>
      <point x="752" y="473" type="curve"/>
      <point x="758" y="477"/>
      <point x="764" y="483"/>
      <point x="772" y="486" type="curve"/>
      <point x="773" y="486"/>
      <point x="773" y="488"/>
      <point x="771" y="487" type="curve"/>
      <point x="765" y="484"/>
      <point x="746" y="476"/>
      <point x="743" y="473" type="curve"/>
      <point x="740" y="470"/>
      <point x="696" y="454"/>
      <point x="687" y="453" type="curve"/>
      <point x="677" y="451"/>
      <point x="642" y="433"/>
      <point x="641" y="432" type="curve"/>
      <point x="640" y="431"/>
      <point x="606" y="402"/>
      <point x="605" y="400" type="curve"/>
      <point x="604" y="398"/>
      <point x="597" y="400"/>
      <point x="596" y="397" type="curve"/>
      <point x="595" y="394"/>
      <point x="552" y="373"/>
      <point x="546" y="368" type="curve"/>
      <point x="541" y="365"/>
      <point x="525" y="359"/>
      <point x="517" y="359" type="curve"/>
      <point x="517" y="359"/>
      <point x="517" y="359"/>
      <point x="516" y="359" type="curve"/>
      <point x="516" y="359"/>
      <point x="514" y="359"/>
      <point x="514" y="359" type="curve"/>
      <point x="508" y="359"/>
      <point x="492" y="352"/>
      <point x="490" y="351" type="curve"/>
      <point x="486" y="350"/>
      <point x="473" y="349"/>
      <point x="467" y="347" type="curve"/>
      <point x="462" y="345"/>
      <point x="461" y="345"/>
      <point x="458" y="345" type="curve"/>
      <point x="455" y="345"/>
      <point x="441" y="337"/>
      <point x="440" y="337" type="curve"/>
      <point x="438" y="337"/>
      <point x="423" y="328"/>
      <point x="421" y="327" type="curve"/>
      <point x="418" y="326"/>
      <point x="410" y="319"/>
      <point x="409" y="317" type="curve"/>
      <point x="409" y="317"/>
      <point x="401" y="314"/>
    </contour>
    <contour>
      <point x="675" y="514" type="curve"/>
      <point x="660" y="514"/>
      <point x="648" y="504"/>
      <point x="642" y="503" type="curve"/>
      <point x="637" y="502"/>
      <point x="613" y="473"/>
      <point x="611" y="470" type="curve"/>
      <point x="608" y="468"/>
      <point x="574" y="439"/>
      <point x="565" y="432" type="curve"/>
      <point x="562" y="430"/>
      <point x="538" y="410"/>
      <point x="516" y="398" type="curve"/>
      <point x="488" y="383"/>
      <point x="462" y="369"/>
      <point x="462" y="367" type="curve"/>
      <point x="461" y="364"/>
      <point x="497" y="380"/>
      <point x="526" y="397" type="curve"/>
      <point x="551" y="413"/>
      <point x="570" y="430"/>
      <point x="570" y="430" type="curve"/>
      <point x="602" y="457" type="line"/>
      <point x="604" y="461"/>
      <point x="608" y="464"/>
      <point x="613" y="465" type="curve"/>
      <point x="613" y="465"/>
      <point x="614" y="465"/>
      <point x="614" y="465" type="curve"/>
      <point x="618" y="465"/>
      <point x="618" y="463"/>
      <point x="619" y="462" type="curve"/>
      <point x="620" y="462"/>
      <point x="620" y="462"/>
      <point x="620" y="462" type="curve"/>
      <point x="621" y="462"/>
      <point x="620" y="464"/>
      <point x="619" y="465" type="curve"/>
      <point x="618" y="466"/>
      <point x="618" y="468"/>
      <point x="618" y="470" type="curve"/>
      <point x="618" y="473"/>
      <point x="626" y="481"/>
      <point x="631" y="485" type="curve"/>
      <point x="634" y="490"/>
      <point x="647" y="500"/>
      <point x="648" y="500" type="curve"/>
      <point x="650" y="500"/>
      <point x="670" y="506"/>
      <point x="673" y="508" type="curve"/>
      <point x="676" y="510"/>
      <point x="679" y="510"/>
      <point x="682" y="512" type="curve"/>
      <point x="679" y="514" type="line"/>
      <point x="677" y="514"/>
      <point x="676" y="514"/>
    </contour>
    <contour>
      <point x="640" y="519" type="curve"/>
      <point x="641" y="519"/>
      <point x="642" y="518"/>
      <point x="642" y="518" type="curve"/>
      <point x="642" y="518"/>
      <point x="642" y="512"/>
      <point x="605" y="503" type="curve"/>
      <point x="575" y="494"/>
      <point x="564" y="487"/>
      <point x="558" y="479" type="curve"/>
      <point x="551" y="469"/>
      <point x="595" y="495"/>
      <point x="622" y="501" type="curve"/>
      <point x="627" y="504"/>
      <point x="645" y="514"/>
      <point x="650" y="517" type="curve"/>
      <point x="654" y="519"/>
      <point x="707" y="518"/>
      <point x="709" y="519" type="curve"/>
      <point x="710" y="520"/>
      <point x="724" y="534"/>
      <point x="730" y="538" type="curve"/>
      <point x="738" y="543"/>
      <point x="769" y="563"/>
      <point x="773" y="568" type="curve"/>
      <point x="776" y="571"/>
      <point x="803" y="582"/>
      <point x="803" y="582" type="curve"/>
      <point x="803" y="582"/>
      <point x="809" y="586"/>
      <point x="805" y="586" type="curve"/>
      <point x="803" y="586"/>
      <point x="802" y="586"/>
      <point x="800" y="585" type="curve"/>
      <point x="790" y="583"/>
      <point x="763" y="569"/>
      <point x="758" y="563" type="curve"/>
      <point x="753" y="558"/>
      <point x="708" y="533"/>
      <point x="705" y="529" type="curve"/>
      <point x="703" y="525"/>
      <point x="681" y="523"/>
      <point x="671" y="523" type="curve"/>
      <point x="670" y="523"/>
      <point x="669" y="523"/>
      <point x="668" y="523" type="curve"/>
      <point x="666" y="523"/>
      <point x="665" y="523"/>
      <point x="663" y="523" type="curve"/>
      <point x="656" y="523"/>
      <point x="642" y="521"/>
      <point x="639" y="521" type="curve"/>
      <point x="635" y="521"/>
      <point x="636" y="518"/>
      <point x="637" y="518" type="curve"/>
      <point x="637" y="518"/>
      <point x="638" y="518"/>
      <point x="638" y="518" type="curve"/>
      <point x="639" y="519"/>
      <point x="639" y="519"/>
    </contour>
    <contour>
      <point x="988" y="613" type="curve"/>
      <point x="985" y="613"/>
      <point x="977" y="611"/>
      <point x="951" y="594" type="curve"/>
      <point x="927" y="577"/>
      <point x="895" y="567"/>
      <point x="884" y="563" type="curve"/>
      <point x="881" y="562"/>
      <point x="879" y="560"/>
      <point x="884" y="561" type="curve"/>
      <point x="891" y="562"/>
      <point x="907" y="565"/>
      <point x="913" y="567" type="curve"/>
      <point x="920" y="569"/>
      <point x="959" y="593"/>
      <point x="978" y="601" type="curve"/>
      <point x="1007" y="614"/>
      <point x="999" y="612"/>
      <point x="990" y="613" type="curve"/>
      <point x="989" y="613"/>
      <point x="989" y="613"/>
    </contour>
    <contour>
      <point x="748" y="687" type="curve"/>
      <point x="754" y="693"/>
      <point x="749" y="695"/>
      <point x="741" y="687" type="curve"/>
      <point x="738" y="684"/>
      <point x="734" y="679"/>
      <point x="730" y="677" type="curve"/>
      <point x="727" y="675"/>
      <point x="707" y="659"/>
      <point x="699" y="652" type="curve"/>
      <point x="694" y="647"/>
      <point x="701" y="648"/>
      <point x="705" y="650" type="curve"/>
      <point x="710" y="653"/>
      <point x="720" y="662"/>
      <point x="722" y="664" type="curve"/>
      <point x="724" y="665"/>
      <point x="741" y="680"/>
    </contour>
  </outline>
</glyph>
<glyph name="f_f" format="1">
  <advance width="471"/>
  <outline>
    <contour>
      <point x="45" y="0" type="line"/>
      <point x="145" y="0" type="line"/>
      <point x="145" y="300" type="line"/>
      <point x="266" y="300" type="line"/>
      <point x="266" y="380" type="line"/>
      <point x="145" y="380" type="line"/>
      <point x="145" y="487" type="line" smooth="yes"/>
      <point x="145" y="551"/>
      <point x="148" y="611"/>
      <point x="162" y="633" type="curve"/>
      <point x="184" y="637"/>
      <point x="247" y="626"/>
      <point x="289" y="584" type="curve"/>
      <point x="357" y="667" type="line"/>
      <point x="324" y="695"/>
      <point x="257" y="710"/>
      <point x="217" y="710" type="curve"/>
      <point x="45" y="612" type="line"/>
      <point x="45" y="365" type="line"/>
      <point x="10" y="317" type="line"/>
      <point x="10" y="300" type="line"/>
      <point x="45" y="300" type="line"/>
    </contour>
    <contour>
      <point x="260" y="0" type="line"/>
      <point x="360" y="0" type="line"/>
      <point x="360" y="300" type="line"/>
      <point x="491" y="300" type="line"/>
      <point x="501" y="380" type="line"/>
      <point x="360" y="380" type="line"/>
      <point x="360" y="487" type="line" smooth="yes"/>
      <point x="360" y="551"/>
      <point x="359" y="638"/>
      <point x="372" y="660" type="curve"/>
      <point x="379" y="663"/>
      <point x="460" y="642"/>
      <point x="493" y="589" type="curve"/>
      <point x="503" y="589" type="line"/>
      <point x="571" y="655" type="line"/>
      <point x="571" y="659" type="line"/>
      <point x="537" y="696"/>
      <point x="481" y="710"/>
      <point x="422" y="710" type="curve"/>
      <point x="260" y="646" type="line"/>
      <point x="260" y="365" type="line"/>
      <point x="215" y="327" type="line"/>
      <point x="215" y="300" type="line"/>
      <point x="260" y="300" type="line"/>
    </contour>
  </outline>
</glyph>
<glyph name="f_i" format="1">
  <advance width="442"/>
  <outline>
    <contour>
      <point x="53" y="0" type="curve"/>
      <point x="173" y="0" type="line"/>
      <point x="170" y="10"/>
      <point x="163" y="20"/>
      <point x="163" y="50" type="curve"/>
      <point x="163" y="260" type="line"/>
      <point x="294" y="260" type="line"/>
      <point x="324" y="340" type="line"/>
      <point x="163" y="340" type="line"/>
      <point x="163" y="645" type="line"/>
      <point x="184" y="645"/>
      <point x="245" y="619"/>
      <point x="284" y="583" type="curve"/>
      <point x="290" y="583" type="line"/>
      <point x="352" y="655" type="line"/>
      <point x="352" y="659" type="line"/>
      <point x="312" y="691"/>
      <point x="279" y="704"/>
      <point x="235" y="710" type="curve"/>
      <point x="63" y="619" type="line"/>
      <point x="63" y="335" type="line"/>
      <point x="20" y="269" type="line"/>
      <point x="24" y="260" type="line"/>
      <point x="63" y="260" type="line"/>
      <point x="63" y="50" type="line" smooth="yes"/>
      <point x="63" y="20"/>
      <point x="56" y="10"/>
    </contour>
    <contour>
      <point x="357" y="390" type="line"/>
      <point x="288" y="319" type="line"/>
      <point x="288" y="49" type="line" smooth="yes"/>
      <point x="288" y="21"/>
      <point x="339" y="-14"/>
      <point x="365" y="-14" type="curve"/>
      <point x="375" y="-14"/>
      <point x="436" y="38"/>
      <point x="442" y="56" type="curve"/>
      <point x="432" y="67" type="line"/>
      <point x="383" y="67"/>
      <point x="375" y="105"/>
      <point x="375" y="152" type="curve"/>
      <point x="375" y="379" type="line"/>
    </contour>
  </outline>
</glyph>
<glyph name="f_l" format="1">
  <advance width="464"/>
  <outline>
    <contour>
      <point x="43" y="0" type="curve"/>
      <point x="163" y="0" type="line"/>
      <point x="160" y="10"/>
      <point x="153" y="20"/>
      <point x="153" y="50" type="curve"/>
      <point x="153" y="300" type="line"/>
      <point x="238" y="300" type="line"/>
      <point x="238" y="380" type="line"/>
      <point x="153" y="380" type="line"/>
      <point x="153" y="645" type="line"/>
      <point x="204" y="645"/>
      <point x="263" y="625"/>
      <point x="268" y="583" type="curve"/>
      <point x="280" y="583" type="line"/>
      <point x="342" y="655" type="line"/>
      <point x="342" y="659" type="line"/>
      <point x="302" y="691"/>
      <point x="269" y="704"/>
      <point x="225" y="710" type="curve"/>
      <point x="53" y="619" type="line"/>
      <point x="53" y="379" type="line"/>
      <point x="10" y="313" type="line"/>
      <point x="14" y="304" type="line"/>
      <point x="53" y="304" type="line"/>
      <point x="53" y="50" type="line" smooth="yes"/>
      <point x="53" y="20"/>
      <point x="46" y="10"/>
    </contour>
    <contour>
      <point x="360" y="710" type="line"/>
      <point x="257" y="643" type="line"/>
      <point x="268" y="614"/>
      <point x="270" y="577"/>
      <point x="270" y="485" type="curve"/>
      <point x="270" y="90" type="line"/>
      <point x="370" y="181" type="line"/>
      <point x="370" y="700" type="line"/>
    </contour>
    <contour>
      <point x="370" y="181" type="curve"/>
      <point x="270" y="90" type="line"/>
      <point x="269" y="65"/>
      <point x="318" y="0"/>
      <point x="340" y="-10" type="curve"/>
      <point x="347" y="-10" type="line"/>
      <point x="464" y="75" type="line"/>
      <point x="464" y="90" type="line"/>
      <point x="417" y="90"/>
      <point x="370" y="107"/>
    </contour>
  </outline>
</glyph>
<glyph name="mond" format="1">
  <advance width="922"/>
  <outline>
    <contour>
      <point x="147" y="690" type="curve"/>
      <point x="98" y="623"/>
      <point x="69" y="566"/>
      <point x="56" y="488" type="curve"/>
      <point x="23" y="290"/>
      <point x="120" y="115"/>
      <point x="269" y="43" type="curve"/>
      <point x="364" y="-3"/>
      <point x="474" y="-14"/>
      <point x="577" y="10" type="curve"/>
      <point x="752" y="50"/>
      <point x="883" y="235"/>
      <point x="871" y="368" type="curve"/>
      <point x="855" y="364" type="line"/>
      <point x="855" y="245"/>
      <point x="737" y="125"/>
      <point x="617" y="90" type="curve"/>
      <point x="421" y="32"/>
      <point x="248" y="90"/>
      <point x="135" y="263" type="curve"/>
      <point x="61" y="377"/>
      <point x="78" y="546"/>
      <point x="161" y="685" type="curve"/>
      <point x="164" y="691"/>
      <point x="152" y="698"/>
    </contour>
  </outline>
</glyph>
<glyph name="o_e" format="1">
  <advance width="680"/>
  <outline>
    <contour>
      <point x="336" y="206" type="curve"/>
      <point x="336" y="296"/>
      <point x="278" y="370"/>
      <point x="178" y="370" type="curve"/>
      <point x="148" y="370"/>
      <point x="125" y="319"/>
      <point x="125" y="259" type="curve"/>
      <point x="125" y="169"/>
      <point x="173" y="80"/>
      <point x="273" y="80" type="curve"/>
      <point x="303" y="80"/>
      <point x="336" y="146"/>
    </contour>
    <contour>
      <point x="58" y="341" type="curve"/>
      <point x="243" y="460" type="line"/>
      <point x="353" y="460"/>
      <point x="432" y="366"/>
      <point x="432" y="256" type="curve"/>
      <point x="432" y="196"/>
      <point x="420" y="148"/>
      <point x="402" y="115" type="curve"/>
      <point x="208" y="-10" type="line"/>
      <point x="108" y="-10"/>
      <point x="25" y="89"/>
      <point x="25" y="189" type="curve"/>
      <point x="25" y="259"/>
      <point x="36" y="298"/>
    </contour>
    <component base="e" xOffset="301"/>
  </outline>
</glyph>
